<svg width="234.585938" height="64.000000" viewBox="0 0 234.586 64" fill="none" xmlns="http://www.w3.org/2000/svg" xmlns:xlink="http://www.w3.org/1999/xlink">
	<desc>
			Created with Pixso.
	</desc>
	<defs/>
	<path id="Vector" d="M32.47 13.44C42.13 15.02 49.52 23.77 49.52 34.34C49.52 46.02 40.49 55.49 29.35 55.49C18.22 55.49 9.19 46.02 9.19 34.34C9.19 24.75 15.27 16.65 23.62 14.06C23.12 14.45 22.67 14.88 22.6 15.56C22.6 15.57 22.6 15.58 22.59 15.59C15.37 18.45 10.24 25.77 10.24 34.34C10.24 45.42 18.8 54.39 29.35 54.39C39.91 54.39 48.47 45.42 48.47 34.34C48.47 23.8 40.7 15.15 30.85 14.36C30.85 14.33 30.85 14.31 30.85 14.29C31.09 14.22 31.34 14.15 31.57 14.05C31.66 14.01 31.75 13.96 31.83 13.91C32.07 13.77 32.28 13.62 32.47 13.44Z" fill="#ED2A54" fill-opacity="1.000000" fill-rule="evenodd"/>
	<path id="Vector" d="M29.35 14.85C39.62 14.85 47.94 23.57 47.94 34.34C47.94 45.11 39.62 53.84 29.35 53.84C19.08 53.84 10.76 45.11 10.76 34.34C10.76 23.57 19.08 14.85 29.35 14.85Z" fill="#FEFEFE" fill-opacity="1.000000" fill-rule="evenodd"/>
	<path id="Vector" d="M29.35 15.84C39.1 15.84 47 24.12 47 34.34C47 44.56 39.1 52.85 29.35 52.85C19.61 52.85 11.71 44.56 11.71 34.34C11.71 24.12 19.61 15.84 29.35 15.84Z" fill="#ED2A54" fill-opacity="1.000000" fill-rule="evenodd"/>
	<path id="Vector" d="M32.61 31.1C32.57 31.18 32.52 31.11 32.55 31.25C32.48 31.18 32.32 31.16 32.34 31.16C32.35 31.08 32.3 31.11 32.3 31.18C32.14 31.19 32.25 31.3 32.25 31.37C32.18 31.25 32.14 31.4 32.15 31.38C32.2 31.4 32.23 31.37 32.18 31.48C32.21 31.56 32.27 31.63 32.36 31.68C32.18 31.66 32.06 31.56 32 31.49C32.02 31.6 31.99 31.48 32.03 31.37L31.91 31.34C32.02 31.34 31.99 31.34 32.04 31.34C32.1 31.38 32.11 31.32 32.1 31.15C32.19 31.05 32.19 30.99 32.1 30.93C32.06 30.95 32.03 30.76 31.96 30.66C31.95 30.54 32.07 30.5 32.02 30.59C32.07 30.55 31.98 30.56 31.97 30.61C32.04 30.64 31.98 30.74 31.91 30.81C31.93 30.79 31.99 30.87 32 30.85C32.04 30.85 31.99 30.96 32.07 31.07C32.04 31.03 32.04 30.94 31.96 31.06C31.95 31 31.89 31.1 31.92 31.07C31.94 31.14 31.9 31.07 31.96 31.15C31.83 31.2 31.86 31.1 31.88 31.15C31.83 31.09 31.92 31.03 31.83 30.99C31.76 31.01 31.72 31.13 31.7 31.09C31.82 31.07 31.79 31.16 31.81 31.19C31.73 31.21 31.62 31.23 31.7 31.29C31.68 31.24 31.64 31.11 31.74 31.09C31.66 31.12 31.65 31.16 31.49 31.15C31.61 31.29 31.61 31.29 31.54 31.23C31.54 31.23 31.5 31.18 31.47 31.16C31.47 31.07 31.5 31.1 31.49 30.89C31.59 30.85 31.49 30.97 31.39 30.88C31.49 30.99 31.44 30.93 31.38 30.87C31.47 30.87 31.33 30.83 31.32 30.92C31.42 30.81 31.5 30.9 31.49 30.77C31.45 30.83 31.52 30.81 31.54 30.72C31.52 30.74 31.62 30.68 31.62 30.64C31.62 30.61 31.56 30.61 31.5 30.63C31.5 30.66 31.45 30.68 31.4 30.64C31.29 30.73 31.27 30.77 31.13 30.7C31.25 30.79 31.18 30.8 31.22 30.93C31.17 30.79 31.14 30.8 31.04 30.65C31.07 30.89 31.07 30.89 31.05 31.09C30.98 30.97 31.14 31.05 31.12 31C31.07 31.18 31.11 31.23 31.06 31.28C31.03 31.32 31 31.2 30.99 31.23C31 31.27 31.02 31.16 30.95 31.15C30.94 31.13 30.96 31.07 31 31C30.82 31.02 30.89 30.86 30.98 30.8C31.03 30.74 30.92 30.81 30.94 30.77C30.96 30.77 30.88 30.78 30.96 30.82C30.78 30.97 30.49 31.16 30.54 31.44C30.54 31.51 30.53 31.63 30.42 31.67C30.45 31.64 30.34 31.72 30.28 31.69C30.16 31.92 30.07 32.13 30.16 32.48C30.08 32.82 30.09 33.03 29.95 33.27C29.94 33.36 29.99 33.54 30.03 33.59C30.09 33.72 30.2 33.91 30.14 34.1C29.99 34.32 30.04 34.49 29.97 34.66C30.02 35.11 29.86 35.53 29.91 35.92C29.9 36.01 29.8 35.99 29.8 36.09C29.77 36.14 29.78 36.14 29.72 36.21C29.44 36.16 29.3 36.14 29.12 36.24C28.92 36.25 28.83 36.24 28.76 36.18C28.7 36.16 28.64 36.14 28.72 36.12C28.71 36.14 28.77 36.04 28.75 36.06C28.98 35.55 29.27 35.05 29.15 34.55C29.28 34.55 29.1 34.36 29.14 34.3C29.07 34.24 29.09 34.11 29.1 34.08C28.94 33.74 28.76 33.45 28.77 33.17C28.71 32.94 28.74 32.88 28.6 32.69C28.57 32.38 28.38 32.02 28.31 31.74C28.15 31.61 28.19 31.5 28.11 31.41C27.99 31.24 28 31.29 27.85 31.42C27.9 31.33 27.81 31.44 27.71 31.5C27.59 31.46 27.53 31.43 27.36 31.42C27.39 31.53 27.27 31.53 27.25 31.63C27.25 31.65 27.15 31.57 27.09 31.6C27.25 31.43 27.43 31.49 27.49 31.4C27.58 31.5 27.7 31.3 27.74 31.33C27.9 31.21 27.87 31.26 27.81 31.18C27.72 31.3 27.6 31.26 27.66 31.24C27.53 31.33 27.6 31.16 27.45 31.22C27.52 31.26 27.52 31.29 27.52 31.27C27.35 31.23 27.41 31.24 27.4 31.3C27.27 31.23 27.14 31.46 27.07 31.47C26.97 31.34 27.03 31.31 27.08 31.2C27.17 31.25 27.13 31.07 27.13 30.99C27.13 31.02 27.21 30.96 27.25 30.97C27.14 30.72 26.97 30.68 26.64 30.56C26.64 30.65 26.64 30.86 26.69 30.93C26.58 30.83 26.6 30.85 26.42 30.76C26.42 30.79 26.53 30.72 26.5 30.78C26.53 30.92 26.61 30.97 26.59 30.97C26.61 30.95 26.53 31.01 26.59 31.06C26.46 31.07 26.53 31.06 26.43 30.96C26.38 31.02 26.42 31 26.36 30.89C26.36 30.91 26.29 30.86 26.34 30.84C26.43 30.96 26.39 30.82 26.46 30.86C26.5 30.77 26.49 30.68 26.38 30.75C26.35 30.7 26.36 30.71 26.23 30.54C26.23 30.6 26.23 30.81 26.23 30.83C26.16 30.76 26.11 30.82 26.07 30.75C26.06 30.81 26.06 30.81 26.09 30.89L26 30.91C26.05 30.94 26.09 30.91 26.12 30.95C26.14 31 26.04 31.04 26.14 31.12C26.2 30.97 26.2 30.97 26.21 30.95C26.24 31.03 26.32 31.06 26.31 31.02C26.29 31.01 26.36 31.11 26.4 31.18C26.39 31.07 26.21 31.15 26.2 31.07C26.3 31.12 26.21 31.18 26.19 31.18C26.11 31.25 26.1 31.2 26.11 31.28C26.05 31.28 26.05 31.26 26.02 31.16C25.94 31.17 25.95 31.06 25.92 31.03C25.82 31.03 25.92 30.98 25.93 31.04C25.96 30.89 25.83 30.83 25.82 30.74C25.82 30.86 25.78 30.88 25.75 30.9C25.77 30.89 25.65 30.87 25.7 30.87C25.71 30.82 25.62 30.9 25.61 30.91C25.55 30.88 25.54 30.95 25.46 30.83C25.51 30.81 25.38 30.62 25.48 30.59C25.53 30.58 25.58 30.5 25.42 30.46C25.42 30.59 25.42 30.56 25.32 30.73C25.25 30.57 25.37 30.51 25.3 30.43C25.26 30.61 25.21 30.7 25.08 30.86C25.08 30.81 25.08 30.84 24.98 30.79C25.04 30.9 24.98 30.9 24.86 31.04C24.96 31.04 24.91 31.03 25.01 30.99C24.98 30.85 25.09 30.8 25.08 30.95C25.14 30.91 25.06 31.09 24.91 31.05C24.91 31.05 24.92 31.13 24.9 31.1C24.88 31.26 24.84 31.19 24.91 31.26C24.8 31.27 24.8 31.26 24.81 31.26C24.87 31.24 24.74 31.39 24.82 31.29C24.84 31.29 24.89 31.34 24.85 31.32C24.9 31.3 24.92 31.34 25.02 31.21C25.13 31.36 25.13 31.28 25.14 31.29C25 31.4 25.04 31.41 25.05 31.57C25.08 31.53 24.99 31.58 24.97 31.63C24.93 31.63 24.96 31.61 25.01 31.76C25.03 31.77 24.98 31.73 24.98 31.83C24.92 31.78 24.86 31.95 24.9 31.98C24.93 32 24.98 32.14 24.83 32.09C24.96 32.14 24.87 32.06 24.86 32.06C24.86 31.93 24.82 31.96 24.93 31.97C24.85 32 24.92 31.88 24.85 31.93C24.87 31.98 24.79 31.89 24.82 31.88C24.93 31.69 24.82 31.68 24.75 31.61C24.73 31.71 24.71 31.69 24.76 31.61C24.72 31.79 24.73 31.65 24.66 31.76C24.8 31.92 24.86 31.87 24.71 31.94C24.62 31.98 24.66 31.99 24.7 32.01C24.52 31.75 24.45 31.71 24.33 31.9C24.43 31.88 24.4 31.84 24.27 31.81C24.25 31.95 24.31 31.93 24.36 31.91C24.2 32.01 24.33 31.94 24.32 31.88C24.26 31.9 24.21 31.76 24.24 31.76C24.25 31.72 24.4 31.79 24.43 31.6C24.3 31.7 24.29 31.64 24.07 31.73C24 31.66 24 31.7 23.91 31.65C24.01 31.72 23.94 31.7 23.99 31.72C23.87 31.75 23.83 31.82 23.96 31.71C23.88 31.76 24 31.81 23.95 31.81C24.04 31.86 24.04 31.79 23.96 31.87C23.97 31.93 24.04 31.84 24.1 31.88C24.03 31.94 24.11 32.01 24.05 31.92C24.13 31.87 24.12 31.97 24.13 32.02C24.13 32.1 24.16 32.11 24.12 32.19C24.04 32.19 24.08 32.07 24.12 32.05C23.97 32.08 23.92 32.08 23.87 32.09C23.98 32.17 23.95 32.17 23.92 32.24C23.97 32.37 23.89 32.27 23.98 32.34C23.89 32.5 24.02 32.46 23.91 32.43C23.97 32.57 23.96 32.61 23.92 32.57C23.85 32.5 23.81 32.59 23.76 32.51C23.72 32.58 23.69 32.55 23.79 32.49C23.61 32.43 23.69 32.5 23.65 32.45C23.62 32.33 23.56 32.21 23.66 32.22C23.59 32.11 23.66 32.11 23.62 31.99C23.62 31.93 23.63 31.83 23.59 31.81C23.48 31.83 23.54 31.92 23.52 31.98C23.51 32.14 23.38 31.98 23.26 31.82C23.2 31.9 23.33 31.89 23.16 31.98C23.23 31.87 23.22 31.96 23.19 31.87C23.16 31.94 23.2 31.92 23.16 31.78C23.24 31.87 23.17 31.74 23.19 31.79C23.12 31.74 23.24 31.69 23.23 31.8C23.22 31.76 23.28 31.83 23.28 31.81C23.39 31.85 23.3 31.76 23.32 31.76C23.41 31.78 23.23 31.75 23.29 31.73C23.34 31.73 23.31 31.7 23.27 31.59C23.33 31.54 23.17 31.55 23.24 31.45C23.27 31.49 23.27 31.41 23.28 31.43C23.34 31.39 23.39 31.33 23.38 31.26C23.3 31.19 23.32 31.14 23.23 31C23.22 31.08 23.23 31.11 23.23 31.03C23.23 31.12 23.19 31.19 23.18 31.16C23.15 31.08 23.14 31.04 23.14 31.09C23.15 30.92 23.03 30.9 23.01 31C22.87 30.97 22.95 31.08 22.83 31.22C22.79 31.19 22.78 31.34 22.68 31.53C22.66 31.38 22.63 31.45 22.63 31.49C22.55 31.39 22.63 31.35 22.61 31.39C22.57 31.26 22.65 31.21 22.61 31.14C22.56 31.06 22.48 31.07 22.57 31.03C22.49 31.07 22.57 31.09 22.49 31C22.49 30.94 22.49 31.03 22.49 30.96C22.55 30.91 22.47 30.85 22.46 30.88C22.41 30.95 22.4 31.03 22.44 31.01C22.43 31.06 22.39 31.2 22.26 31.11C22.35 31.25 22.28 31.3 22.28 31.33C22.4 31.27 22.38 31.36 22.35 31.33C22.29 31.46 22.34 31.48 22.44 31.44C22.43 31.46 22.5 31.5 22.39 31.46C22.51 31.45 22.4 31.57 22.39 31.55C22.47 31.6 22.33 31.59 22.42 31.53C22.33 31.59 22.27 31.56 22.26 31.52C22.19 31.61 22.21 31.53 22.25 31.53C22.22 31.36 22.23 31.28 22.33 31.22C22.19 31.21 22.15 31.09 22.24 31.07C22.18 31.1 22.12 31.09 22.12 31.12C22.1 31.15 21.97 31.1 22.01 31.04C22.1 31.08 22.09 31.06 22.11 31.11C21.96 30.99 21.93 30.99 21.99 30.94C21.86 30.98 21.96 31.01 21.89 31.03C21.9 31.01 21.91 31 21.94 31.04C21.78 31.08 21.81 31.01 21.68 31.09C21.69 31.05 21.71 30.9 21.75 31C21.81 30.87 21.73 30.76 21.79 30.87C21.79 30.74 21.73 30.74 21.6 30.72C21.66 30.81 21.66 30.83 21.57 30.9C21.58 30.7 21.61 30.64 21.65 30.56C21.58 30.54 21.63 30.47 21.66 30.45C21.73 30.6 21.67 30.62 21.76 30.64C21.76 30.6 21.76 30.57 21.76 30.54C21.69 30.64 21.7 30.46 21.7 30.52C21.74 30.41 21.7 30.47 21.72 30.38C21.65 30.37 21.7 30.43 21.85 30.28C21.77 30.28 21.75 30.21 21.73 30.17L21.74 30.07C21.77 30.18 21.66 30.07 21.64 30.01C21.67 30.05 21.72 29.92 21.68 29.9C21.79 29.95 21.8 29.8 21.89 29.64C21.9 29.53 21.79 29.49 21.78 29.51C21.65 29.46 21.65 29.64 21.72 29.64C21.64 29.7 21.71 29.61 21.65 29.61C21.58 29.65 21.56 29.64 21.49 29.61C21.52 29.65 21.54 29.63 21.46 29.72C21.4 29.83 21.39 29.77 21.41 29.85C21.5 29.83 21.46 29.79 21.48 29.87C21.4 29.86 21.33 29.91 21.4 29.82C21.33 29.8 21.4 29.79 21.33 29.78C21.36 29.75 21.42 29.7 21.39 29.68C21.41 29.59 21.35 29.52 21.42 29.36C21.36 29.41 21.44 29.25 21.52 29.17C21.67 29.24 21.67 29.26 21.82 29.21C21.83 29.04 21.79 29.03 21.8 28.91C21.77 28.81 21.83 28.97 21.9 28.92C21.97 28.77 21.74 28.77 21.76 28.7C21.89 28.72 21.94 28.7 21.95 28.79C22.07 28.68 21.9 28.53 22.03 28.63C22.03 28.6 22.05 28.62 22.06 28.66C22.02 28.55 22.09 28.39 22.17 28.28C22.12 28.31 22.24 28.41 22.16 28.44C22.28 28.49 22.31 28.33 22.36 28.32C22.32 28.31 22.39 28.47 22.31 28.49C22.45 28.46 22.44 28.43 22.44 28.4C22.41 28.45 22.37 28.4 22.39 28.33C22.43 28.36 22.53 28.43 22.56 28.27C22.46 28.21 22.45 28.16 22.44 27.96C22.45 28.02 22.46 28.08 22.48 27.98C22.43 27.99 22.42 28.1 22.37 28.12C22.37 28.13 22.41 28.18 22.36 28.16C22.36 28.16 22.25 28.15 22.3 28.06C22.5 28.03 22.61 27.85 22.65 27.74C22.64 27.7 22.62 27.68 22.61 27.62C22.72 27.71 22.68 27.79 22.78 27.85C22.87 27.61 22.79 27.65 22.74 27.47C22.63 27.51 22.61 27.53 22.64 27.51C22.76 27.51 22.81 27.51 22.76 27.51C22.79 27.29 22.78 27.33 22.85 27.26C22.77 27.23 22.77 27.25 22.67 27.31C22.61 27.28 22.71 27.23 22.58 27.24C22.6 27.32 22.58 27.46 22.37 27.5C22.37 27.49 22.37 27.43 22.37 27.47C22.31 27.34 22.41 27.27 22.23 27.31C22.25 27.36 22.31 27.41 22.18 27.46C22.3 27.51 22.26 27.56 22.22 27.46C22.11 27.45 22.14 27.29 22.06 27.34C22.1 27.2 22.05 27.29 21.95 27.31C21.82 27.26 21.88 27.32 21.92 27.14C22.01 27.24 21.93 27.2 21.98 27.05C22.05 27.13 22.07 27.04 22.03 26.98C22.02 27.02 21.98 26.97 21.95 26.8C21.97 26.98 22.09 26.85 22.17 26.96C22.17 26.89 22.17 26.75 22.17 26.77C22.11 26.74 22.2 26.72 22.14 26.66C22.23 26.69 22.22 26.64 22.22 26.54C22.18 26.49 22.37 26.5 22.38 26.68C22.33 26.49 22.26 26.36 22.14 26.36C22.33 26.42 22.39 26.36 22.32 26.35C22.39 26.37 22.37 26.41 22.39 26.41C22.31 26.54 22.46 26.59 22.52 26.66C22.44 26.52 22.48 26.43 22.64 26.35C22.56 26.36 22.63 26.29 22.52 26.35C22.59 26.22 22.67 26.15 22.61 26.11C22.7 25.96 22.65 25.95 22.55 25.87C22.57 25.78 22.6 25.7 22.65 25.75C22.63 25.75 22.71 25.67 22.77 25.59C22.77 25.6 22.87 25.68 22.82 25.68C22.82 25.62 22.79 25.72 22.9 25.82C22.79 25.83 22.83 25.83 22.88 25.84C22.9 25.71 22.78 25.74 22.82 25.66C22.99 25.69 22.98 25.72 22.89 25.5C23.02 25.58 23.01 25.67 23.15 25.61C23.1 25.61 23.2 25.6 23.16 25.6C23.14 25.6 23.12 25.61 23.01 25.44C23.27 25.38 23.27 25.32 23.36 25.01C23.35 24.97 23.46 25.09 23.51 24.92C23.47 25.01 23.47 24.83 23.49 24.81C23.55 24.87 23.51 25.06 23.65 25.11C23.7 24.98 23.72 25.17 23.69 25.14C23.71 25.27 23.81 25.11 23.74 24.97C23.77 24.97 23.71 24.97 23.65 24.97C23.6 25.01 23.62 24.87 23.58 24.85C23.63 24.93 23.66 24.79 23.72 24.96C23.79 24.89 23.76 25 23.88 25.01C23.83 24.87 23.87 24.9 23.98 24.73C24 24.88 24.04 25.11 23.87 25.1C23.89 25.11 23.95 25.2 23.99 25.08C24.02 25.08 23.99 25.07 24.08 25.08C24.12 25.14 24.22 25.07 24.25 25.07C24.18 24.97 24.31 24.92 24.26 24.81C24.33 24.79 24.4 24.76 24.4 24.6C24.33 24.61 24.33 24.53 24.29 24.58C24.42 24.47 24.36 24.49 24.26 24.36C24.38 24.25 24.34 24.31 24.32 24.26C24.46 24.29 24.46 24.24 24.56 24.26C24.63 24.09 24.69 24.06 24.71 23.86C24.55 23.87 24.52 23.74 24.39 23.65C24.38 23.66 24.37 23.71 24.2 23.73C24.21 23.77 24.32 23.77 24.3 23.85C24.21 23.96 24.01 23.83 24.15 24.07C24.06 24.08 24.11 24.05 24.01 24.03C24.05 23.95 24.12 23.96 24.02 23.91C24.06 23.77 24.18 23.84 24.08 23.83C24.25 23.69 24.25 23.73 24.29 23.6C24.22 23.62 24.24 23.63 24.18 23.59C23.96 23.47 23.97 23.6 24.15 23.34C24.11 23.37 24.15 23.37 24.1 23.31C24.08 23.4 24.07 23.3 24.01 23.47C24.02 23.33 24.08 23.21 24.07 23.04C24.04 23 23.9 23.05 23.82 23.09C23.89 22.98 23.86 22.86 23.82 22.82C23.78 22.86 23.78 22.72 23.83 22.8C23.85 22.8 23.98 22.79 24.08 22.87C23.94 22.82 24.07 22.68 24 22.59C24 22.42 24.08 22.46 24.21 22.48C24.18 22.39 24.16 22.46 24.13 22.52C24.18 22.48 24.24 22.6 24.19 22.63C24.18 22.6 24.27 22.63 24.21 22.63C24.33 22.63 24.29 22.56 24.35 22.5C24.46 22.64 24.39 22.83 24.52 22.93C24.46 22.91 24.54 22.91 24.54 22.98C24.55 23 24.6 22.91 24.55 22.94C24.57 22.89 24.66 22.8 24.56 22.72C24.6 22.78 24.64 22.78 24.62 22.73C24.73 22.73 24.84 22.73 24.86 22.73C24.81 22.63 24.82 22.55 24.88 22.59C24.81 22.54 24.8 22.6 24.8 22.5C24.88 22.46 24.79 22.5 24.75 22.54C24.78 22.55 24.81 22.56 24.77 22.5C24.7 22.47 24.7 22.47 24.83 22.42C24.62 22.42 24.6 22.37 24.62 22.37C24.54 22.29 24.57 22.23 24.58 22.22C24.59 22.23 24.67 22.32 24.76 22.26C24.8 22.15 24.82 22.31 24.79 22.36C24.79 22.36 24.88 22.39 24.89 22.38C24.96 22.32 25.01 22.41 24.82 22.28C24.85 22.33 24.81 22.24 24.89 22.27C24.95 22.23 24.91 22.19 24.85 22.15C24.97 22.3 24.93 22.29 25 22.43C25.02 22.47 24.98 22.43 25.09 22.53C25.07 22.59 25.05 22.5 25.02 22.55C25.09 22.48 24.98 22.56 25.08 22.64C24.97 22.57 24.85 22.65 24.83 22.67C24.91 22.72 24.9 22.76 24.93 22.84C24.93 22.75 24.97 22.78 24.96 22.76C24.97 22.74 25.06 22.76 25.12 22.79C25.03 22.87 25.17 23.03 25.05 23.1C25.04 23.1 25.18 23.21 25.14 23.2C25.28 23.14 25.33 23.05 25.47 22.92C25.34 22.94 25.31 22.86 25.36 22.88C25.33 22.78 25.21 22.87 25.17 22.79C25.29 22.94 25.16 22.99 25.21 22.96C25.17 22.89 25.07 22.89 25.08 22.78C25.17 22.81 25.25 22.82 25.39 22.63C25.3 22.73 25.35 22.82 25.26 22.75C25.38 22.66 25.43 22.73 25.49 22.59C25.39 22.47 25.39 22.47 25.36 22.57C25.25 22.53 25.28 22.49 25.31 22.37C25.25 22.43 25.16 22.35 25.26 22.32C25.2 22.2 25.04 22.32 25.04 22.12C25.02 22.18 24.94 22.25 24.87 22.13C24.87 22.13 24.92 22.06 24.87 22.09C24.99 22.12 24.83 22.04 24.78 22.03C24.75 22.12 24.79 22.07 24.62 22.14C24.54 22.2 24.5 22.13 24.47 22.17C24.5 22.18 24.53 22.19 24.56 22.2C24.54 22.15 24.67 22.11 24.7 21.98C24.57 21.97 24.51 22.04 24.53 22.07C24.5 21.96 24.48 22.08 24.55 22.18C24.41 22.21 24.44 22.31 24.41 22.22C24.46 22.27 24.42 22.2 24.32 22.16C24.35 22.26 24.23 22.23 24.21 22.05C24.15 22.05 24.09 22.02 24.19 21.86C24.06 21.97 24.11 21.98 24.02 21.99C24.03 21.86 24.03 21.86 24.07 21.78C24.12 21.73 24.06 21.55 24 21.47C24 21.54 24 21.31 24 21.23C23.9 21.34 23.94 21.47 24.12 21.35C24.1 21.37 24.06 21.34 24.14 21.4C24.17 21.43 24.13 21.47 24.07 21.35C24.2 21.43 24.18 21.5 24.37 21.46C24.31 21.38 24.13 21.37 24.2 21.36C24.3 21.21 24.38 21.27 24.24 21.09C24.36 21.11 24.28 21.06 24.35 21.03C24.43 21.1 24.41 21.17 24.44 21.15C24.43 21 24.44 21.03 24.66 21C24.58 21.02 24.57 20.96 24.57 20.93C24.62 20.95 24.64 20.94 24.65 20.93C24.78 20.92 24.78 20.92 24.95 20.92C24.93 20.74 25 20.76 24.87 20.72C24.94 20.75 24.79 20.65 24.75 20.8C24.76 20.65 24.82 20.53 24.84 20.5C24.87 20.5 24.96 20.53 24.88 20.4C24.84 20.34 24.82 20.37 24.82 20.36C24.88 20.42 24.8 20.57 24.67 20.58C24.71 20.62 24.79 20.72 24.62 20.78C24.66 20.79 24.71 20.86 24.74 20.83C24.63 20.92 24.71 20.79 24.63 20.68C24.7 20.6 24.55 20.7 24.58 20.71C24.63 20.6 24.53 20.54 24.57 20.62C24.6 20.53 24.57 20.56 24.66 20.49C24.74 20.45 24.7 20.44 24.83 20.38C24.9 20.37 24.96 20.26 24.91 20.28C25.05 20.25 24.98 20.16 25.06 20.25C25.05 20.23 25.13 20.26 25.03 20.35C25.01 20.43 25.13 20.4 25.03 20.43C25.16 20.47 25.23 20.37 25.26 20.26C25.11 20.24 25.13 20.16 25.13 20.34C25.13 20.21 25.13 20.08 25.13 20.1C25.13 20.19 25.16 20.09 25.29 19.95C25.16 19.95 25.21 20.04 25.35 19.94C25.29 20.1 25.21 20.16 25.19 20.19C25.25 20.14 25.21 20.16 25.4 20.22C25.32 20.25 25.41 20.21 25.34 20.14C25.42 20.11 25.54 20.15 25.52 20.2C25.46 20.25 25.47 20.24 25.55 20.36C25.55 20.23 25.55 20.17 25.55 20.14C25.62 20.08 25.54 20.18 25.62 20.12C25.59 20.25 25.57 20.21 25.54 20.33C25.59 20.3 25.64 20.26 25.69 20.22C25.63 20.2 25.72 20.18 25.66 20.16C25.67 20.12 25.69 20.07 25.69 20.03C25.65 20.17 25.75 20.05 25.83 20.09C25.73 20.04 25.73 20.1 25.82 20.19C25.81 20.03 25.85 20.05 25.79 19.95C25.93 20.08 25.91 19.96 25.91 20.02C25.85 20.04 25.94 20.11 25.97 19.99C25.95 20.19 25.89 20.25 25.89 20.31C25.92 20.18 25.98 20.23 26.06 20.36C26.19 20.26 26.09 20.31 25.96 20.09C26.13 20.07 26.16 20.21 26.13 20.22C26.1 20.15 26.1 20.11 26.12 19.95C26.15 20 26.06 20.06 25.97 19.96C25.87 20 25.92 20.04 25.98 20.08C26 19.94 25.89 19.95 25.91 19.81C25.95 19.88 25.96 19.79 26.04 19.81C25.99 19.77 26.06 19.64 26.04 19.6C26.05 19.54 26.19 19.71 26.16 19.71C26.23 19.64 26.25 19.78 26.21 19.79C26.19 19.78 26.24 19.79 26.38 19.82C26.31 19.77 26.42 19.86 26.52 19.82C26.43 19.78 26.38 19.61 26.53 19.55C26.47 19.56 26.55 19.56 26.7 19.66C26.63 19.56 26.77 19.53 26.76 19.51C26.7 19.48 26.78 19.46 26.72 19.44C26.72 19.55 26.72 19.67 26.72 19.68C26.84 19.63 26.9 19.71 26.89 19.68C27.01 19.74 27.06 19.9 26.96 19.99C27.02 19.93 27.09 19.86 27.01 19.96C27.08 20.04 27.11 20.02 27.09 20.1C27.19 20.11 27.19 20.09 27.11 20.26C27.06 20.21 27.19 20.34 27.15 20.25C27.3 20.25 27.39 20.15 27.53 20.08C27.39 20.12 27.32 20.14 27.31 20.04C27.31 20 27.31 19.93 27.31 19.96C27.39 19.93 27.31 19.84 27.45 19.88C27.45 19.93 27.45 19.94 27.43 19.85C27.41 19.83 27.42 19.93 27.52 19.91C27.63 19.77 27.56 19.92 27.73 19.88C27.7 20.02 27.71 20.04 27.86 19.87C27.74 19.91 27.74 19.73 27.76 19.66C27.76 19.54 27.85 19.63 27.77 19.64C27.85 19.56 27.9 19.56 27.87 19.41C27.97 19.39 27.93 19.32 27.95 19.34C27.98 19.39 28 19.44 28.03 19.34C28.03 19.43 28.03 19.53 28.03 19.51C28.07 19.61 28.04 19.64 28.13 19.68C28.11 19.54 28.27 19.3 28.05 19.13C28.09 19.11 28.16 19.12 28.09 18.99C28.27 19.07 28.25 19.17 28.35 19.2C28.42 19.1 28.42 19.07 28.39 19.03C28.38 19.06 28.33 18.99 28.33 18.98C28.44 18.91 28.39 18.76 28.47 18.91C28.61 18.89 28.58 18.97 28.66 19.01C28.65 18.88 28.72 18.84 28.72 18.77C28.73 18.71 28.69 18.79 28.65 18.7C28.75 18.78 28.74 18.8 28.95 18.76C28.96 18.7 28.91 18.73 28.72 18.66C28.9 18.58 28.86 18.56 28.92 18.56C28.91 18.73 28.99 18.79 29.02 18.77C29.2 18.81 29.34 18.74 29.37 18.63C29.36 18.62 29.4 18.65 29.47 18.77C29.37 18.71 29.4 18.73 29.41 18.8C29.3 18.81 29.36 18.76 29.33 18.81C29.27 18.76 29.39 18.81 29.44 18.83C29.44 18.82 29.45 18.83 29.42 18.91C29.45 18.88 29.44 18.9 29.52 18.89C29.49 18.78 29.4 18.63 29.63 18.69C29.62 18.67 29.48 18.72 29.52 18.95C29.63 18.73 29.75 18.84 29.73 18.7C29.72 18.63 29.69 18.77 29.82 18.65C29.77 18.69 29.95 18.8 29.95 18.79C30.05 18.73 30.07 18.73 29.99 18.75C30.04 18.7 30.13 18.68 30.2 18.68C30.17 18.65 30.25 18.59 30.46 18.71C30.38 18.73 30.41 18.81 30.51 18.76C30.61 18.79 30.68 18.65 30.5 18.63C30.53 18.66 30.59 18.61 30.49 18.54C30.65 18.58 30.64 18.57 30.75 18.52C30.78 18.53 30.73 18.59 30.66 18.59C30.74 18.58 30.8 18.61 30.85 18.56C30.75 18.66 30.76 18.7 30.78 18.69C30.83 18.67 30.87 18.65 30.91 18.63C30.78 18.68 30.91 18.76 30.85 18.95C30.84 18.92 30.91 18.98 30.92 18.97C31.05 18.99 31.03 18.89 31.1 18.8C31.08 18.92 31.06 18.88 31.04 18.84C31.15 18.87 31.03 18.94 31.03 18.95C31.06 19.1 31.17 19.02 31.16 19.16C31.2 19.08 31.18 19.12 31.2 19.08C31.21 19.14 31.23 19.02 31.29 19.05C31.31 19.14 31.36 19.16 31.41 19.13C31.37 19.21 31.4 19.32 31.55 19.28C31.45 19.26 31.45 19.22 31.53 19.26C31.49 19.29 31.64 19.45 31.46 19.57C31.49 19.54 31.57 19.69 31.62 19.7C31.79 19.65 31.76 19.81 31.82 19.86C31.86 19.91 31.8 19.83 31.77 19.88C31.7 20.09 31.71 20.03 32 19.96C31.88 19.97 31.85 20.05 31.87 19.93C31.94 19.9 31.9 19.86 31.94 19.8C32.1 19.81 32.07 19.91 32.06 20.15C32.06 20.15 32.03 20.15 32.25 20.15C32.12 20.2 32.22 20.17 32.17 20.3C32.11 20.18 32.2 20.22 32.11 20.25C32.15 20.16 32.15 20.23 32.16 20.15C32.26 20.25 32.21 20.2 32.17 20.14C32.2 20.35 32.2 20.4 32.25 20.44C32.17 20.53 32.21 20.36 32.28 20.34C32.36 20.39 32.35 20.38 32.29 20.42C32.43 20.52 32.41 20.75 32.37 20.92C32.43 20.85 32.48 20.88 32.49 20.95C32.38 20.97 32.38 21.1 32.39 21.3C32.43 21.28 32.28 21.27 32.29 21.38C32.37 21.47 32.47 21.43 32.45 21.48C32.45 21.41 32.45 21.4 32.45 21.3C32.59 21.33 32.69 21.38 32.64 21.45C32.85 21.49 32.83 21.37 32.55 21.22C32.7 21.2 32.62 21.21 32.74 21.17C32.68 21.22 32.68 21.26 32.76 21.32C32.74 21.25 32.7 21.26 32.78 21.14C32.75 21.27 32.83 21.1 32.73 21.17C32.87 21.24 32.83 21.13 32.84 21.19C32.93 21.3 32.93 21.2 32.94 21.23C32.86 21.13 32.93 21.14 32.98 21.13L33.01 21.01C33 21.31 33.06 21.38 32.98 21.52C32.92 21.54 32.96 21.53 32.97 21.57C33 21.63 33.04 21.53 33.22 21.68C33.15 21.69 33.14 21.73 33.23 21.8C33.31 21.89 33.33 21.8 33.39 21.83C33.33 21.72 33.38 21.79 33.37 21.75C33.32 21.58 33.38 21.61 33.37 21.58C33.39 21.67 33.36 21.63 33.46 21.6L33.47 21.57C33.38 21.63 33.42 21.68 33.45 21.76C33.53 21.77 33.49 21.8 33.59 21.84C33.62 21.84 33.51 21.8 33.51 21.86C33.52 21.86 33.52 21.86 33.47 21.86C33.52 21.98 33.51 22.01 33.48 22.19C33.45 22.11 33.45 22.24 33.41 22.15C33.48 22.32 33.48 22.41 33.33 22.42C33.43 22.49 33.3 22.54 33.3 22.67C33.29 22.67 33.3 22.61 33.26 22.72C33.31 22.68 33.51 22.68 33.52 22.66C33.61 22.81 33.76 22.99 33.71 22.91C33.66 22.99 33.67 22.99 33.69 23.11C33.68 23.15 33.59 23.22 33.7 23.18C33.79 23.28 33.84 23.3 33.84 23.38C33.78 23.31 33.74 23.38 33.7 23.51C33.73 23.45 33.73 23.51 33.87 23.54C33.8 23.48 33.82 23.58 33.88 23.51C33.84 23.51 33.94 23.53 33.91 23.52C33.96 23.47 33.93 23.52 34.02 23.36C34 23.37 34.08 23.41 34.03 23.32C34.06 23.2 34.2 23.15 34.19 23.3C34.31 23.16 34.29 23.18 34.39 23.1C34.35 23.25 34.47 23.16 34.41 23.3C34.45 23.23 34.39 23.34 34.48 23.45C34.45 23.45 34.43 23.45 34.4 23.45C34.5 23.34 34.5 23.22 34.64 23.15C34.56 23.17 34.68 23.23 34.7 23.28C34.62 23.34 34.61 23.23 34.57 23.19C34.57 23.45 34.57 23.52 34.57 23.6C34.5 23.68 34.34 23.66 34.32 23.59C34.31 23.5 34.3 23.49 34.32 23.51C34.33 23.44 34.23 23.56 34.2 23.54C34.25 23.45 34.21 23.46 34.21 23.56C34.39 23.68 34.2 23.79 34.26 23.84C34.38 23.81 34.39 23.94 34.35 23.83C34.53 23.99 34.59 24 34.66 23.86C34.63 23.87 34.77 23.84 34.74 23.85C34.72 23.95 34.71 23.95 34.77 24.04C34.72 24.15 34.87 24.18 34.9 24.27C34.87 24.28 34.88 24.29 34.85 24.27C34.92 24.26 34.9 24.35 35 24.3C34.99 24.39 34.99 24.33 34.9 24.34C34.99 24.51 34.99 24.53 34.88 24.57C35.06 24.6 35 24.58 35.19 24.57C35.17 24.59 35.17 24.56 35.16 24.53C35.21 24.62 35.15 24.55 35.2 24.61C35.26 24.64 35.27 24.72 35.37 24.61C35.48 24.61 35.44 24.56 35.49 24.44C35.59 24.56 35.65 24.49 35.55 24.48C35.45 24.58 35.5 24.53 35.4 24.64C35.44 24.63 35.48 24.56 35.59 24.57C35.56 24.61 35.6 24.7 35.47 24.66C35.56 24.71 35.7 24.81 35.62 24.66C35.65 24.61 35.78 24.66 35.74 24.79C35.75 24.83 35.74 24.84 35.78 24.79C35.83 24.74 35.8 24.79 35.88 24.7C35.86 24.82 36.01 24.89 35.83 24.95C35.89 24.89 35.89 24.92 35.92 25.03C35.99 25.07 35.99 25.07 35.97 25.1C36.02 25.07 36.03 25.06 36.08 24.96C36.11 24.95 36.09 24.93 36.23 25C36.19 25.06 36.17 25.12 36.15 25.12C36 25.16 36.08 25.21 36.03 25.26C36.06 25.34 36.03 25.35 36.04 25.38C36.06 25.43 36.11 25.35 36.1 25.36C36.08 25.36 36.1 25.42 36.14 25.33C36.27 25.52 35.99 25.69 36.07 25.8C36.15 25.76 36.37 25.82 36.27 25.97C36.38 25.82 36.34 25.83 36.29 25.74C36.39 25.74 36.41 25.74 36.51 25.74C36.52 25.89 36.5 25.96 36.44 26.01C36.34 26.01 36.31 25.98 36.11 26.11C36.17 26.1 36.08 26.04 36.1 26.18C36.02 25.98 36.04 25.92 35.82 26C35.85 26.06 35.79 26.16 35.8 26.23C35.74 25.92 35.7 26.24 35.56 26.11C35.59 26.34 35.53 26.39 35.6 26.38C35.62 26.35 35.54 26.49 35.66 26.46C35.64 26.49 35.8 26.43 35.73 26.69C35.86 26.72 35.88 26.76 35.83 26.8C35.9 26.8 35.91 26.8 35.76 26.8C35.83 26.95 35.79 26.89 35.92 27.01C35.88 27.07 35.9 27.11 36 26.92C36.04 26.94 36.04 27.04 36.15 27.03C36.12 26.98 36.17 27.04 36.12 27.05C36.07 27.17 36.16 27.18 36.09 27.2C36.1 27.18 36.14 27.22 36.06 27.26C36.08 27.37 35.94 27.34 35.88 27.31C35.94 27.16 35.93 27.21 35.92 27.12C35.92 27.11 35.91 27.13 35.89 27.27C35.92 27.26 35.94 27.35 35.9 27.47C35.95 27.4 35.91 27.29 35.84 27.39C35.8 27.4 35.85 27.48 35.69 27.52C35.78 27.47 35.68 27.54 35.79 27.57C35.82 27.58 35.74 27.63 35.7 27.75C35.7 27.76 35.66 27.77 35.66 27.83C35.81 27.76 35.8 27.72 35.8 27.85C35.72 27.81 35.79 27.77 35.78 27.75C35.88 27.79 35.77 27.78 35.83 27.77C35.86 27.81 35.84 28 35.79 27.97C35.8 28.04 35.83 28.04 35.88 28.06C35.87 27.92 35.9 27.93 35.92 27.94C35.81 27.98 35.89 27.92 35.98 27.89C35.95 27.88 35.97 27.92 35.96 27.85C35.97 27.99 35.99 27.97 35.93 28.09C35.98 28.14 36.04 28.12 36.07 28.06C35.99 28.21 35.87 28.39 36 28.47C36.02 28.43 35.94 28.5 36.03 28.59C35.97 28.69 36.12 28.7 36.16 28.75C36 28.82 35.98 28.9 36.05 28.97C35.98 28.97 35.87 28.97 35.79 28.89C35.71 29.01 35.72 28.86 35.76 28.83C35.73 28.83 35.74 28.73 35.71 28.76C35.68 28.75 35.78 28.65 35.67 28.54C35.72 28.59 35.68 28.48 35.67 28.53C35.55 28.51 35.59 28.69 35.52 28.72C35.43 28.65 35.49 28.67 35.51 28.73C35.53 28.73 35.45 28.85 35.41 28.88C35.47 28.85 35.39 28.82 35.34 28.83C35.3 28.72 35.35 28.74 35.34 28.74C35.47 28.74 35.27 28.6 35.35 28.54C35.36 28.44 35.29 28.48 35.25 28.36C35.26 28.49 35.22 28.65 35.36 28.71C35.36 28.66 35.26 28.88 35.29 28.79C35.3 28.95 35.19 28.96 35.3 29.09C35.33 29.02 35.24 29.11 35.28 29.05C35.38 29.21 35.38 29.17 35.53 29.13C35.48 29.21 35.58 29.21 35.63 29.29C35.62 29.33 35.65 29.41 35.73 29.28C35.66 29.44 35.71 29.35 35.67 29.49C35.7 29.53 35.53 29.53 35.52 29.42C35.55 29.49 35.45 29.34 35.37 29.29C35.49 29.29 35.37 29.44 35.33 29.4C35.4 29.39 35.46 29.43 35.42 29.52C35.42 29.67 35.4 29.69 35.23 29.7C35.23 29.58 35.27 29.78 35.31 29.88C35.23 29.84 35.31 29.9 35.36 29.94C35.35 29.9 35.43 30.03 35.42 30.1C35.49 29.93 35.5 30.06 35.48 29.94C35.66 29.83 35.58 29.91 35.7 29.93C35.74 29.91 35.75 30.06 35.72 30.01C35.81 30.01 35.85 30.21 35.86 30.08C35.91 30.07 35.93 30.08 35.99 30.06C35.96 30.3 36.1 30.2 36.11 30.18C36.09 30.2 36.11 30.35 35.91 30.36C35.93 30.36 35.98 30.44 35.93 30.44C35.81 30.46 35.84 30.37 35.81 30.44C35.81 30.45 35.81 30.52 35.81 30.58C35.74 30.58 35.79 30.62 35.91 30.66C35.81 30.78 35.84 30.84 35.96 30.93C35.9 30.89 35.89 30.85 35.83 30.88C35.85 31.05 35.73 31.14 35.48 31.09C35.52 31.18 35.5 31.17 35.46 31.17C35.5 31.22 35.66 31.17 35.62 31.33C35.78 31.31 35.78 31.2 35.8 31.12C35.81 31.12 35.83 31.14 35.89 31.23C35.93 31.25 35.96 31.33 35.97 31.22C36.02 31.23 36.01 31.33 36.07 31.22C36.03 31.37 35.88 31.38 35.95 31.52C35.87 31.41 35.81 31.35 35.88 31.32C35.75 31.37 35.69 31.32 35.73 31.26C35.62 31.46 35.64 31.5 35.59 31.56C35.61 31.61 35.44 31.58 35.49 31.56C35.37 31.63 35.28 31.8 35.32 31.84C35.4 31.79 35.19 31.78 35.26 31.75C35.32 31.78 35.22 31.65 35.25 31.62C35.1 31.77 35.02 31.6 35.1 31.56C35.01 31.52 34.97 31.51 34.91 31.46C35.04 31.57 34.9 31.7 34.86 31.82C34.7 31.77 34.88 31.55 34.6 31.51C34.68 31.61 34.56 31.86 34.69 31.95C34.73 31.98 34.65 32.02 34.53 31.95C34.53 31.99 34.48 31.91 34.45 31.96C34.45 31.95 34.43 31.99 34.39 32.11C34.41 32.17 34.55 32.14 34.56 32.29C34.52 32.35 34.57 32.34 34.6 32.3C34.54 32.28 34.42 32.4 34.5 32.37C34.36 32.29 34.26 32.26 34.43 32.07C34.34 32.2 34.33 32.05 34.17 32.04C34.18 31.98 34.27 32 34.24 32.03C34.14 32.14 34.19 32.09 34.25 32.12C34.19 32.11 34.14 32.17 34.05 32.1C34.13 32.1 34.16 32.11 34.2 32.13C34.24 32.2 34.21 32.25 34.15 32.28C34.15 32.34 34.23 32.36 34.25 32.35C34.19 32.36 34.21 32.35 34.14 32.54C34.29 32.49 34.28 32.4 34.32 32.45C34.27 32.48 34.28 32.47 34.18 32.49C34.19 32.55 34.21 32.47 34.11 32.52C34.03 32.7 34.08 32.64 34.06 32.56C34.11 32.53 34.11 32.45 34.14 32.54C34.08 32.41 34.2 32.3 34.17 32.36C34.17 32.36 34.05 32.36 34.05 32.36C33.92 32.23 33.95 32.27 33.99 32.17C34 32.11 34.01 32.01 33.97 32.03C33.82 32.01 33.77 31.93 33.76 31.81C33.89 31.79 33.9 31.85 34.02 31.69C33.89 31.72 34.02 31.53 34.02 31.48C33.97 31.43 33.91 31.3 33.88 31.28C33.89 31.25 34.06 31.22 33.97 31.09C34.01 30.99 33.98 30.99 34.07 30.87C34.2 30.91 34.2 30.91 34.13 30.83C34.02 30.77 34 30.76 34.1 30.6C34 30.68 34.04 30.56 33.92 30.55C33.86 30.51 33.94 30.5 33.81 30.65C33.84 30.6 33.85 30.64 33.88 30.73C33.83 30.69 33.84 30.77 33.8 30.85C33.72 30.8 33.77 30.75 33.6 30.7C33.71 30.64 33.63 30.65 33.67 30.59C33.63 30.55 33.58 30.56 33.46 30.5C33.5 30.59 33.45 30.72 33.49 30.84C33.55 30.71 33.45 30.76 33.42 30.81C33.42 30.77 33.56 30.81 33.55 30.99C33.48 31.05 33.46 31.04 33.6 31.18C33.55 31.13 33.56 31.11 33.51 31.24C33.4 31.24 33.34 31.42 33.42 31.44C33.33 31.37 33.39 31.46 33.3 31.39C33.25 31.45 33.34 31.34 33.26 31.28C33.29 31.37 33.21 31.47 33.3 31.62C33.04 31.55 33.04 31.55 33.07 31.45C32.98 31.36 32.99 31.29 33.01 31.23C32.85 31.24 32.91 31.3 32.82 31.19C32.84 31.14 32.81 31.03 32.75 31C32.76 30.97 32.72 30.91 32.76 30.94C32.74 30.89 32.58 30.93 32.64 31.01C32.62 31.15 32.58 31.15 32.52 31.07C32.59 31.16 32.54 31.03 32.56 30.99C32.38 30.98 32.54 30.99 32.6 30.9C32.45 30.89 32.45 30.89 32.46 30.71C32.43 30.8 32.5 30.88 32.63 30.78C32.72 30.64 32.84 30.65 32.97 30.78C32.92 30.6 32.85 30.55 32.88 30.62C32.87 30.56 32.92 30.52 32.85 30.42C32.93 30.51 32.88 30.48 32.89 30.39C32.96 30.36 32.97 30.33 32.95 30.3C32.99 30.27 32.89 30.25 32.86 30.14C32.93 30.28 32.88 30.21 32.86 30.19C32.93 30.26 32.95 30.24 32.91 30.34C32.9 30.34 32.87 30.34 32.76 30.34C32.73 30.24 32.78 30.33 32.84 30.26C32.75 30.17 32.65 30.21 32.56 30.28C32.56 30.25 32.55 30.39 32.46 30.39C32.6 30.48 32.64 30.53 32.65 30.6C32.58 30.57 32.56 30.63 32.56 30.65C32.41 30.63 32.4 30.67 32.49 30.68C32.43 30.7 32.46 30.68 32.46 30.64C32.41 30.58 32.3 30.62 32.3 30.52C32.25 30.68 32.19 30.71 32.17 30.63C32.29 30.78 32.22 30.66 32.29 30.68C32.28 30.63 32.26 30.58 32.4 30.66C32.35 30.66 32.33 30.76 32.31 30.75C32.24 30.77 32.26 30.9 32.28 30.91C32.29 30.92 32.47 31.03 32.41 31.09C32.51 31.07 32.48 31.11 32.49 31.17C32.51 31.2 32.6 31.17 32.61 31.1ZM32.51 23.22C32.5 23.24 32.63 23.26 32.63 23.27C32.63 23.51 32.56 23.43 32.75 23.46C32.73 23.39 32.59 23.46 32.69 23.29C32.67 23.37 32.59 23.34 32.67 23.21C32.66 23.3 32.72 23.24 32.75 23.3C32.62 23.16 32.64 23.17 32.66 23.19C32.61 23.17 32.57 23.3 32.52 23.28C32.58 23.14 32.5 22.98 32.46 22.87C32.41 23.02 32.55 22.99 32.52 23.05C32.53 23.25 32.6 23.12 32.51 23.22ZM25.5 26.75C25.43 26.69 25.5 26.78 25.43 26.71C25.48 26.75 25.41 26.64 25.43 26.68C25.46 26.71 25.49 26.58 25.51 26.5C25.4 26.48 25.34 26.51 25.36 26.53C25.33 26.56 25.32 26.57 25.37 26.53C25.35 26.62 25.35 26.74 25.4 26.8C25.48 26.91 25.55 26.76 25.51 26.73C25.41 26.77 25.47 26.8 25.47 26.8C25.47 26.76 25.54 26.76 25.62 26.78C25.59 26.82 25.57 26.87 25.55 26.75C25.64 26.66 25.6 26.68 25.47 26.62C25.43 26.68 25.45 26.67 25.5 26.75ZM22.77 26.91C22.85 26.9 22.89 26.97 22.86 26.93C23 26.85 23.02 26.95 23.07 26.91C22.94 26.76 22.93 26.82 22.89 26.85C22.91 26.68 22.74 26.74 22.82 26.74C22.82 26.83 22.75 26.85 22.71 26.92C22.78 26.94 22.73 27 22.82 26.96C22.74 26.93 22.84 27.06 22.81 27.07C22.8 27.06 22.9 26.99 23.03 27.01C22.91 26.98 22.91 26.87 22.77 26.91ZM25.91 25.3C25.95 25.25 26 25.2 26.04 25.15C26.01 25.09 26.1 25.19 25.96 25.14C26.03 25.2 25.95 25.11 25.88 25.12C25.87 25.14 25.96 25.11 25.89 25.08C25.9 25.1 25.92 25.12 25.93 25.13C25.93 25.26 25.93 25.23 25.98 25.32C25.95 25.36 26.01 25.32 25.93 25.28C25.88 25.43 25.87 25.42 25.91 25.49C25.9 25.58 25.87 25.58 25.86 25.55C25.96 25.57 25.94 25.56 25.94 25.67C26.09 25.61 26.07 25.72 26.05 25.68C26.04 25.73 26.17 25.62 26.14 25.58C26.3 25.68 26.21 25.56 26.24 25.53C26.26 25.55 26.27 25.55 26.32 25.55C26.29 25.59 26.35 25.62 26.37 25.5C26.46 25.62 26.4 25.66 26.44 25.69C26.54 25.67 26.54 25.68 26.57 25.51C26.61 25.37 26.67 25.58 26.75 25.5C26.75 25.44 26.75 25.54 26.9 25.57C26.89 25.62 26.73 25.68 26.72 25.57C26.82 25.54 26.76 25.67 26.72 25.57C26.71 25.66 26.7 25.68 26.72 25.67C26.72 25.75 26.7 25.74 26.73 25.84C26.7 25.72 26.7 25.71 26.78 25.8C26.86 25.61 26.86 25.6 26.93 25.55C26.96 25.46 26.83 25.45 26.81 25.24C26.89 25.32 26.76 25.32 26.78 25.31C26.72 25.32 26.81 25.33 26.75 25.33C26.72 25.37 26.85 25.24 26.82 25.27C26.75 25.11 26.67 25.06 26.58 24.85C26.59 24.88 26.55 24.89 26.64 24.91C26.6 25.07 26.62 25.03 26.59 25.21C26.44 25.25 26.43 25.37 26.45 25.43C26.35 25.45 26.41 25.4 26.29 25.53C26.41 25.46 26.38 25.44 26.34 25.43C26.28 25.45 26.32 25.37 26.38 25.39C26.38 25.39 26.38 25.39 26.39 25.39C26.26 25.41 26.28 25.29 26.23 25.33C26.18 25.27 26.18 25.28 26.18 25.3C26.28 25.27 26.23 25.23 26.19 25.27C26.16 25.23 26.09 25.43 26.04 25.39C26.18 25.52 26.18 25.53 26.15 25.53C26.21 25.55 26.12 25.57 26.11 25.65C26.01 25.67 26.14 25.5 26.08 25.57C26.12 25.49 26.02 25.3 26.09 25.14C26.08 25.29 26.07 25.29 25.91 25.3ZM23.17 27.24C23.07 27.22 23.12 27.12 23.18 27.09C23.11 27.06 23.15 26.94 23.07 27.08C23.04 27 23.09 27.12 23.06 27.07C23.04 27.2 22.96 27.27 22.95 27.28C22.98 27.28 22.86 27.27 22.99 27.46C22.92 27.31 22.99 27.37 23.06 27.29C23.04 27.3 22.98 27.45 23.04 27.44C23.1 27.52 23.05 27.44 23.04 27.52C23.16 27.4 23.15 27.29 23.13 27.36C23.15 27.33 23.23 27.28 23.23 27.19C23.33 27.14 23.29 26.94 23.23 26.95C23.18 26.89 23.17 27.03 23.26 27.03C23.19 27.09 23.26 27.18 23.17 27.24ZM29.19 32.58C29.15 32.56 29.16 32.44 29.26 32.54C29.42 32.56 29.44 32.62 29.37 32.32C29.47 32.36 29.49 32.24 29.39 32.13C29.41 32.11 29.35 32.08 29.25 32.08C29.32 31.87 29.33 31.88 29.24 31.66C29.2 31.69 29.28 31.79 29.14 31.78C29.19 31.72 29.19 31.52 29.1 31.38C29.08 31.46 29.08 31.3 29.02 31.29C29.01 31.57 28.87 31.62 28.76 31.65C28.72 31.64 28.83 31.73 28.78 31.67C28.75 31.77 28.91 31.96 28.92 31.95C28.98 32.25 29.01 32.48 29.07 32.57C29.19 32.53 29.18 32.6 29.18 32.6C29.18 32.55 29.2 32.58 29.19 32.58ZM27.25 25.75C27.34 25.84 27.4 26.02 27.26 26C27.31 26.12 27.23 26.01 27.28 26.08C27.34 26.19 27.38 26.25 27.38 26.48C27.48 26.4 27.44 26.47 27.39 26.39C27.52 26.35 27.35 26.32 27.4 26.08C27.46 26.07 27.52 26.1 27.59 26.22C27.42 26.09 27.56 26.06 27.64 25.96C27.61 25.91 27.66 25.75 27.51 25.58C27.58 25.71 27.64 25.59 27.56 25.6C27.64 25.75 27.72 25.75 27.77 25.76C27.81 25.62 27.76 25.57 27.9 25.4C27.72 25.38 27.71 25.4 27.69 25.41C27.53 25.36 27.6 25.4 27.6 25.38C27.54 25.49 27.49 25.54 27.4 25.51C27.46 25.57 27.38 25.48 27.44 25.54C27.44 25.49 27.39 25.44 27.28 25.54C27.29 25.41 27.25 25.44 27.3 25.47C27.28 25.5 27.26 25.54 27.31 25.77C27.34 25.66 27.36 25.73 27.25 25.75ZM22.71 29.79C22.75 29.84 22.81 29.85 22.82 29.93C22.92 29.94 22.93 29.94 22.98 29.87C22.91 29.86 22.99 29.91 23.01 29.81C22.91 29.77 22.94 29.8 23.08 29.66C23.07 29.56 22.98 29.52 23.01 29.49C23.08 29.47 23.09 29.57 23.16 29.5C23.02 29.46 23.08 29.43 23.15 29.33C22.99 29.41 22.99 29.41 22.91 29.44C23.06 29.33 22.85 29.2 23.01 29.09C22.92 29.16 22.81 29.24 22.87 29.29C22.93 29.44 22.93 29.41 22.89 29.5C22.85 29.35 22.73 29.32 22.73 29.34C22.66 29.43 22.74 29.4 22.67 29.54C22.71 29.53 22.56 29.54 22.58 29.53C22.55 29.51 22.48 29.6 22.59 29.55C22.41 29.66 22.41 29.67 22.28 29.72C22.33 29.72 22.29 29.8 22.3 29.96C22.48 29.94 22.63 29.94 22.64 29.67C22.78 29.76 22.71 29.74 22.71 29.79ZM29.1 24.63C29.1 24.65 29.24 24.93 29.3 25.03C29.46 24.81 29.46 24.81 29.28 24.56C29.27 24.55 29.16 24.48 29.35 24.49C29.28 24.5 29.18 24.46 29.27 24.26C29.2 24.48 29.17 24.53 29.19 24.52C29.12 24.46 29.1 24.5 29.06 24.56C29.05 24.39 28.97 24.34 28.75 24.35C28.74 24.32 28.85 24.29 28.72 24.19C28.78 24.25 28.77 24.19 28.81 24.2C28.8 24.12 28.71 24.26 28.76 24.15C28.83 24.34 28.65 24.38 28.7 24.57C28.82 24.57 28.72 24.57 28.76 24.57C28.79 24.69 28.89 24.64 28.86 24.57C28.9 24.69 28.98 24.76 28.95 24.72C28.85 24.79 28.92 24.79 29.02 24.74C28.96 24.86 29.02 24.87 29 24.76C28.97 24.71 28.85 24.71 29.1 24.63ZM33.22 22.46C33.13 22.35 33.07 22.38 33.01 22.26C33.04 22.23 33.06 22.21 33.08 22.18C33.08 22.3 33.01 22.3 32.93 22.3C32.95 22.37 32.87 22.48 32.82 22.45C32.77 22.53 32.8 22.42 32.82 22.47C32.85 22.46 32.88 22.55 32.76 22.45C32.8 22.46 32.8 22.46 32.75 22.46C32.77 22.51 32.74 22.63 32.59 22.72C32.7 22.63 32.81 22.61 32.77 22.76C32.85 22.77 32.88 22.86 32.97 22.75C32.95 22.74 32.93 22.58 33.03 22.58C33.04 22.53 33.05 22.64 33.07 22.6C33.09 22.59 33.12 22.58 33.04 22.61C33.15 22.67 33.19 22.58 33.25 22.61C33.22 22.5 33.35 22.54 33.34 22.49C33.34 22.33 33.35 22.44 33.21 22.37C33.29 22.44 33.22 22.46 33.3 22.43C33.3 22.43 33.15 22.43 33.22 22.46ZM33.9 27.97C34 27.95 34.18 28.02 34.1 27.95C34.22 27.95 34.25 28.06 34.24 27.95C34.26 28.11 34.29 28.05 34.18 28.16C34.27 28.02 34.4 28.1 34.46 27.95C34.37 27.87 34.3 27.92 34.29 27.95C34.33 27.96 34.26 27.97 34.33 27.98C34.25 27.8 34.19 27.59 34.12 27.53C34.13 27.64 34.05 27.7 34 27.73C34.04 27.83 34.02 27.92 33.9 27.97ZM27.63 24.97C27.63 24.94 27.63 24.94 27.57 25.22C27.57 25.21 27.52 25.2 27.65 25.22C27.56 25.27 27.67 25.31 27.72 25.38C27.79 25.34 27.81 25.3 27.74 25.36C27.95 25.36 27.95 25.37 28.03 25.21C28.15 25.17 28.07 25.1 28 25.07C27.96 25.12 27.93 25.06 28.04 25.15C27.95 25.12 27.85 25.09 27.84 25.23C27.76 25.03 27.76 25.05 27.63 24.97ZM26.73 26.23C26.96 26.23 27.01 26.36 27.05 26.44C27.22 26.47 27.21 26.52 27.2 26.47C27.19 26.47 27.25 26.41 27.13 26.33C27.13 26.25 27.06 26.16 27.01 26.08C27.06 26.07 27.04 26 27.04 25.93C27.05 26.01 27.06 25.94 26.92 26.02C26.98 26.03 27.03 26.07 27.09 25.98C26.96 26.05 27.05 26.11 26.99 26.09C26.97 26.11 26.78 26.14 26.73 26.23ZM30.74 30.65C30.62 30.68 30.6 30.67 30.54 30.61C30.5 30.64 30.41 30.52 30.44 30.5C30.3 30.56 30.29 30.75 30.45 30.99C30.5 30.91 30.57 30.76 30.74 30.65ZM28.6 22.03C28.55 22.01 28.51 21.94 28.52 22.02C28.51 21.94 28.57 21.93 28.49 21.79C28.38 21.84 28.39 21.92 28.34 21.98C28.42 21.89 28.39 21.95 28.44 22.01C28.44 21.92 28.41 22.01 28.53 21.95C28.47 21.95 28.41 21.94 28.49 21.94C28.4 22.04 28.44 22.14 28.35 22.25C28.45 22.15 28.4 22.21 28.5 22.12C28.58 22.11 28.63 22.22 28.66 22.19C28.65 22.26 28.67 22.23 28.6 22.15C28.68 22.11 28.67 21.97 28.86 22.08C28.74 22.1 28.88 22.03 28.82 22.01C28.8 22.03 28.72 21.94 28.8 21.89C28.69 21.85 28.68 21.89 28.74 21.9C28.61 21.88 28.7 21.85 28.65 21.87C28.68 21.89 28.71 21.8 28.74 21.71C28.64 21.88 28.55 21.91 28.6 22.03ZM30.68 24.55C30.61 24.52 30.7 24.43 30.65 24.46C30.65 24.46 30.75 24.27 30.67 24.3C30.77 24.12 30.86 24.17 30.77 24.14C30.82 24.07 30.85 24.04 30.72 24.02C30.65 24.15 30.65 24.15 30.58 23.96C30.59 23.99 30.56 24.05 30.4 24.07C30.54 24.06 30.44 24.11 30.49 24.23C30.58 24.17 30.64 24.23 30.54 24.41C30.62 24.52 30.59 24.53 30.68 24.55ZM25.13 26.19C25.17 26.41 25.16 26.49 25.09 26.62C25.14 26.49 25.09 26.46 25.1 26.48C25.1 26.51 25.15 26.44 25.23 26.49C25.27 26.58 25.36 26.41 25.35 26.35C25.37 26.36 25.42 26.45 25.36 26.36C25.41 26.37 25.48 26.3 25.52 26.25C25.51 26.26 25.5 26.26 25.49 26.26C25.39 26.24 25.43 26.38 25.32 26.38C25.24 26.35 25.3 26.21 25.33 26.33C25.29 26.28 25.17 26.29 25.13 26.19ZM31.84 27.63C31.95 27.61 31.93 27.57 31.93 27.59C31.92 27.63 32.03 27.79 31.93 27.74C31.92 27.74 31.92 27.74 31.86 27.74C31.87 27.87 31.94 27.83 31.95 27.91C32.01 27.8 32.02 27.73 32.14 27.68C32.16 27.68 32.04 27.66 32.16 27.57C32.08 27.63 32.09 27.57 31.98 27.55C31.95 27.62 31.96 27.6 31.95 27.44C31.84 27.61 31.95 27.65 31.86 27.69C31.84 27.56 31.85 27.59 31.83 27.56C31.84 27.7 31.85 27.74 31.84 27.63ZM25.9 26.12C25.83 26.08 25.76 26.12 25.83 25.92C25.64 25.93 25.62 25.99 25.8 26.25C25.81 26.19 25.81 26.29 25.9 26.12ZM30.36 27.48C30.37 27.58 30.37 27.69 30.15 27.78C30.38 27.68 30.27 27.78 30.39 27.94C30.43 27.84 30.43 27.84 30.45 27.86C30.51 27.72 30.63 27.58 30.42 27.72C30.37 27.64 30.39 27.56 30.31 27.52C30.32 27.52 30.36 27.54 30.36 27.48ZM28.53 21.44C28.39 21.54 28.46 21.26 28.24 21.47C28.29 21.52 28.41 21.49 28.36 21.55C28.36 21.63 28.34 21.75 28.41 21.78C28.31 21.78 28.41 21.77 28.39 21.77C28.41 21.66 28.57 21.71 28.59 21.54C28.59 21.58 28.56 21.56 28.5 21.47C28.43 21.57 28.51 21.58 28.53 21.44ZM30.04 30.42C30.03 30.33 29.89 30.46 29.98 30.59C29.92 30.6 30.01 30.64 30.01 30.76C30.09 30.71 29.99 30.68 30.06 30.64C30.09 30.71 30.16 30.72 30.19 30.64C30.1 30.62 30.1 30.36 30.04 30.42ZM23.31 26.34C23.23 26.29 23.4 26.13 23.42 26.12C23.31 26.12 23.35 26.12 23.39 26.12C23.35 26.08 23.31 26.2 23.28 26.12C23.29 26.08 23.22 26.12 23.17 26.07C23.19 26.11 23.08 26.16 23.14 26.26C23.11 26.35 23.23 26.3 23.34 26.41C23.32 26.38 23.3 26.36 23.28 26.34C23.24 26.4 23.21 26.23 23.31 26.34ZM30.37 25.75C30.36 25.71 30.26 25.65 30.3 25.68C30.33 25.69 30.26 25.76 30.31 25.63C30.29 25.72 30.41 25.68 30.38 25.82C30.41 25.85 30.57 25.83 30.58 25.84C30.53 25.74 30.59 25.65 30.54 25.56C30.43 25.58 30.43 25.61 30.37 25.75ZM25.42 23.5C25.44 23.5 25.28 23.54 25.26 23.58C25.32 23.56 25.27 23.71 25.18 23.67C25.23 23.67 25.25 23.67 25.37 23.69C25.5 23.65 25.43 23.77 25.44 23.78C25.48 23.78 25.64 23.73 25.48 23.63C25.37 23.57 25.47 23.62 25.46 23.58C25.42 23.63 25.39 23.5 25.42 23.5ZM29.41 32.84C29.39 32.7 29.33 32.71 29.44 32.71C29.45 32.56 29.35 32.54 29.33 32.65C29.26 32.61 29.18 32.69 29.26 32.75C29.32 32.93 29.31 32.93 29.41 32.84ZM27.34 25.34C27.46 25.28 27.39 25.26 27.47 25.18C27.49 25.09 27.55 25.14 27.41 25.1C27.4 25.14 27.35 25.1 27.29 25.06C27.36 25.16 27.28 25.23 27.29 25.24C27.26 25.29 27.4 25.25 27.34 25.34ZM27.09 25C27.11 25.04 27.11 25.07 27 24.96C26.99 25.11 27.05 25.19 27.01 25.3C27.17 25.21 27.15 24.96 27.13 25C27.03 25.03 27.07 25.04 27.09 25ZM26.75 25.78C26.69 25.87 26.57 25.93 26.47 25.88C26.55 26.06 26.49 26.1 26.54 26.1C26.56 25.98 26.6 26.06 26.55 25.91C26.61 26.06 26.72 26.04 26.7 26.03C26.75 25.89 26.71 25.95 26.75 25.91C26.75 25.84 26.75 25.8 26.75 25.78ZM22.73 30.71C22.65 30.85 22.63 30.82 22.64 30.9C22.61 30.96 22.58 31.01 22.59 31.03C22.66 31.04 22.73 31.05 22.69 30.94C22.78 31.05 22.74 30.94 22.82 30.99C22.87 30.82 22.65 30.85 22.73 30.71ZM32.6 22.5C32.61 22.38 32.46 22.39 32.6 22.4C32.49 22.36 32.46 22.37 32.54 22.28C32.5 22.41 32.48 22.55 32.51 22.58C32.59 22.56 32.66 22.5 32.71 22.57C32.72 22.41 32.72 22.41 32.64 22.35C32.61 22.43 32.58 22.38 32.6 22.5ZM35.05 28.38C34.97 28.21 35 28.22 35.07 28.19C35.07 28.07 35.03 28.13 35 28.04C34.96 28.15 34.94 28.16 34.96 28.1C34.84 28.21 34.93 28.17 34.98 28.26C34.98 28.27 35.03 28.38 35.05 28.38ZM30.73 30.32C30.65 30.36 30.72 30.44 30.79 30.5C30.74 30.47 30.64 30.52 30.68 30.56C30.83 30.55 30.75 30.63 30.84 30.48C30.83 30.37 30.7 30.2 30.78 30.24C30.63 30.34 30.74 30.25 30.73 30.32ZM28.32 30.67C28.2 30.64 28.22 30.77 28.26 30.74C28.31 30.92 28.23 30.95 28.44 31.13C28.34 31.16 28.4 31.03 28.43 31.12C28.43 31.03 28.35 30.97 28.33 31.03C28.34 30.97 28.36 30.82 28.36 30.79C28.38 30.81 28.24 30.74 28.32 30.67ZM29.81 30.12C29.9 30.17 29.97 30.15 30.02 30.1C30.19 30.19 30.14 30.03 30.11 30.1C30.11 29.95 29.97 30.04 29.9 29.93C29.99 30.02 29.93 30.11 29.96 29.99C30 29.97 29.91 30.06 29.81 30.12ZM26.07 30.72C26.07 30.74 26.08 30.72 26.08 30.7C26.06 30.5 26.28 30.57 26.2 30.49C26.23 30.46 26.08 30.37 26.07 30.47C26.07 30.42 26.07 30.51 26.07 30.72ZM28.19 21.73C28.16 21.7 28.09 21.52 28.05 21.63C28.09 21.55 28 21.62 27.98 21.58C28.01 21.57 27.88 21.58 27.88 21.67C27.89 21.64 27.84 21.62 28 21.62C27.94 21.72 28.05 21.73 28.19 21.73ZM26.46 24.98C26.48 25.01 26.5 24.89 26.51 24.92C26.33 24.9 26.3 24.9 26.28 25.04C26.23 25 26.27 25.14 26.27 25.13C26.21 25.19 26.31 25.18 26.23 25.15C26.28 25.16 26.34 25.07 26.34 25.02C26.36 24.97 26.34 25.04 26.42 25.11C26.33 24.99 26.5 25.03 26.46 24.98ZM32.25 20.65C32.16 20.68 32.25 20.62 32.1 20.57C32.19 20.65 32.1 20.65 32.08 20.81C31.97 20.83 31.98 20.75 32.02 20.85C31.98 20.9 32.11 20.86 32.17 20.91C32.15 20.81 32.26 20.74 32.25 20.65ZM28.81 24.16C28.73 24.06 28.77 24.12 28.87 24.03C28.76 23.99 28.65 24.02 28.59 23.94C28.67 23.97 28.64 23.85 28.59 23.89C28.55 23.92 28.65 23.97 28.59 23.98C28.62 24 28.65 24.02 28.66 24.15C28.71 24.11 28.71 24.16 28.81 24.16ZM25.24 28.17C25.3 28.31 25.21 28.29 25.1 28.49C25.18 28.39 25.32 28.31 25.24 28.17ZM22.5 26.81C22.45 26.76 22.47 26.83 22.45 26.89C22.49 26.89 22.48 26.78 22.6 26.81C22.49 26.83 22.53 26.84 22.53 26.71C22.59 26.8 22.59 26.74 22.48 26.7C22.61 26.67 22.53 26.59 22.45 26.73C22.38 26.81 22.4 26.8 22.41 26.82C22.37 26.8 22.49 26.81 22.5 26.81ZM21.86 29.11C21.93 29.14 21.86 29.01 21.93 29.04C21.89 29.14 21.86 29.09 21.99 29.19C21.9 29.13 21.92 29.09 21.94 29.22C21.97 29.2 22.05 29.21 22 29.14C22.01 29.14 22.05 29.03 21.99 28.96C21.99 28.97 21.99 28.97 21.99 28.97C21.95 28.96 21.89 28.96 21.86 29.11ZM32.26 27.74C32.36 27.74 32.31 27.74 32.26 27.74C32.37 27.85 32.33 27.95 32.34 27.86C32.41 27.77 32.4 27.78 32.23 27.61C32.27 27.63 32.33 27.77 32.26 27.74ZM32.53 21.72C32.46 21.64 32.37 21.7 32.41 21.6C32.38 21.57 32.35 21.53 32.46 21.55C32.37 21.45 32.42 21.51 32.32 21.57C32.35 21.53 32.34 21.54 32.28 21.53C32.46 21.66 32.41 21.8 32.41 21.86C32.42 21.83 32.41 21.67 32.53 21.72ZM29.86 31.36C30 31.29 30.1 31.18 30.08 31.13C29.99 31.16 29.99 31.23 29.82 31.17C29.98 31.21 29.8 31.3 29.86 31.36ZM33.67 24.11C33.58 24.13 33.62 24.06 33.55 24.11C33.57 24.05 33.6 24.12 33.5 24.18C33.46 24.1 33.39 23.99 33.39 24.34C33.46 24.31 33.44 24.34 33.49 24.2C33.49 24.25 33.58 24.1 33.67 24.11ZM23.46 31.22C23.46 31.07 23.45 30.98 23.42 31.01C23.4 31 23.35 30.97 23.36 30.97C23.39 30.95 23.29 31.1 23.4 31.11C23.32 31 23.37 31.12 23.34 30.99C23.36 31.1 23.29 31.06 23.36 31.17C23.37 31.08 23.37 31.14 23.46 31.22ZM29.32 33.32C29.41 33.39 29.35 33.3 29.44 33.37C29.37 33.23 29.46 33.21 29.46 33.12C29.34 33.2 29.27 33.08 29.25 33.15C29.27 33.13 29.37 33.23 29.32 33.32ZM35.2 25.58C35.17 25.63 35.27 25.53 35.23 25.59C35.25 25.52 35.28 25.44 35.31 25.53C35.21 25.56 35.26 25.59 35.19 25.54C35.08 25.5 35.07 25.36 35.06 25.45C35.07 25.39 35.11 25.35 35.01 25.36C34.99 25.3 35.07 25.39 34.95 25.27C35.06 25.42 35.08 25.51 35.2 25.58ZM25.25 24.22C25.2 24.23 25.02 24.32 24.87 24.38C25.04 24.34 25.19 24.29 25.25 24.22ZM23.68 25.22C23.6 25.24 23.52 25.16 23.38 25.26C23.46 25.33 23.46 25.32 23.43 25.39C23.54 25.35 23.49 25.41 23.54 25.34C23.6 25.37 23.65 25.26 23.68 25.22ZM29.24 22.18C29.23 22.22 29.25 22.23 29.36 22.4C29.31 22.38 29.26 22.39 29.36 22.33C29.38 22.27 29.33 22.17 29.41 22.13C29.38 22.08 29.35 22.02 29.34 22.12C29.35 22.17 29.37 22.08 29.37 22.22C29.32 22.15 29.22 22.23 29.24 22.18ZM26.65 19.88C26.44 19.78 26.5 19.99 26.52 20.01C26.47 19.95 26.43 19.93 26.49 20.03C26.48 19.96 26.55 19.99 26.53 20.05C26.55 20.03 26.5 20 26.49 20.02C26.69 20.06 26.53 19.96 26.65 19.88ZM23.1 27.7C23.19 27.66 23.27 27.55 23.42 27.54C23.38 27.59 23.25 27.51 23.27 27.46C23.23 27.58 23.13 27.65 23.1 27.7ZM22.37 28.77C22.32 28.73 22.44 28.73 22.4 28.76C22.33 28.74 22.37 28.73 22.29 28.68C22.3 28.6 22.22 28.8 22.23 28.82C22.26 28.86 22.36 28.81 22.36 28.89C22.4 28.96 22.37 28.83 22.44 28.9C22.39 28.79 22.41 28.83 22.37 28.77ZM23.05 28.94C23.04 28.86 23.03 28.97 23.03 28.92C22.98 28.9 22.93 29.03 22.88 29.01C22.92 29.02 22.95 29.04 22.84 29.06C22.99 29.06 23.08 29.01 22.99 29.15C22.99 29.03 23.06 29.01 23.05 28.94ZM34.05 30.01C34.01 29.93 33.94 29.89 33.91 29.85C33.77 29.99 33.82 29.87 33.73 29.85C33.86 29.96 33.81 30.2 34.05 30.01ZM32.53 23.56C32.49 23.41 32.52 23.47 32.57 23.27C32.43 23.29 32.31 23.48 32.53 23.56ZM24.94 21.66C24.91 21.6 25.01 21.53 25 21.37C25.07 21.41 25.09 21.33 25.06 21.33C25.12 21.34 25.02 21.38 25.07 21.35C24.97 21.43 24.94 21.53 24.94 21.66ZM35.81 25.61C35.91 25.58 36.03 25.61 35.94 25.57C36.01 25.59 35.98 25.45 36.1 25.5C36.09 25.51 36 25.27 35.93 25.48C35.89 25.48 35.87 25.58 35.81 25.61ZM28.85 31.52C28.84 31.46 28.84 31.4 28.98 31.49C28.92 31.51 28.9 31.4 28.91 31.42C28.93 31.3 28.9 31.24 28.89 31.21C28.91 31.22 28.8 31.23 28.82 31.22C28.84 31.39 28.88 31.3 28.85 31.52ZM28.42 29C28.32 28.89 28.41 28.79 28.29 28.78C28.3 28.89 28.17 28.78 28.13 28.84C28.29 28.99 28.35 28.94 28.42 29ZM25.28 25.88C25.21 25.78 25.26 25.67 25.17 25.57C25.08 25.74 25.08 25.74 25.28 25.88ZM33.08 31.39C33.08 31.37 33.21 31.25 33.13 31.22C33.1 31.25 33.08 31.25 33.03 31.13C33 31.22 33.06 31.31 33.08 31.39ZM26.53 26.18C26.56 26.14 26.56 26.14 26.35 26.06C26.4 26.22 26.41 26.23 26.25 26.24C26.33 26.22 26.27 26.24 26.36 26.18C26.43 26.18 26.43 26.18 26.53 26.18ZM22.74 26.43C22.75 26.44 22.76 26.53 22.91 26.54C22.89 26.4 22.85 26.44 22.78 26.38C22.72 26.41 22.74 26.33 22.74 26.43ZM23 26.38C23.04 26.4 23.13 26.55 23.07 26.54C23.12 26.51 23.17 26.47 23.15 26.59C23.14 26.46 23.21 26.33 23.07 26.34C23.02 26.43 22.9 26.41 22.98 26.39C22.89 26.45 22.93 26.52 22.97 26.43C23.03 26.49 23 26.47 23 26.38ZM35.62 30.16C35.65 30.14 35.64 30.02 35.69 30.03C35.68 30.05 35.59 30.03 35.5 30.16C35.56 30.13 35.47 30.09 35.53 30.06C35.56 30.06 35.59 30.06 35.67 30.06C35.63 30.18 35.71 30.26 35.64 30.25C35.75 30.19 35.75 30.19 35.77 30.16C35.66 30.23 35.77 30.18 35.62 30.16ZM29.29 27.03C29.37 27.1 29.44 27.02 29.37 27.1C29.32 27.05 29.43 27 29.48 26.85C29.4 26.91 29.29 26.89 29.29 26.84C29.29 26.95 29.29 27.06 29.29 27.03ZM23.42 31.25C23.65 31.42 23.66 31.29 23.57 31.29C23.54 31.21 23.56 31.23 23.42 31.25ZM24.74 25.33C24.75 25.29 24.71 25.23 24.59 25.12C24.65 25.26 24.64 25.32 24.58 25.32C24.67 25.34 24.68 25.37 24.74 25.33ZM30.98 25.07C30.92 24.97 30.98 25.01 30.95 24.9C31.03 24.85 31.02 24.8 31.01 24.9C30.93 24.89 31 24.89 31 24.87C30.91 24.89 30.94 24.81 30.91 24.76C30.94 24.84 30.87 24.78 30.79 24.94C30.93 25 30.89 24.99 30.98 25.07ZM28.3 28.28C28.26 28.27 28.36 28.25 28.32 28.24C28.24 28.26 28.12 28.24 28.11 28.31C28.09 28.24 28.1 28.3 28.03 28.29C28.08 28.31 28.19 28.31 28.1 28.31C28.23 28.26 28.31 28.31 28.3 28.28ZM31.4 23.66C31.34 23.48 31.39 23.47 31.45 23.33C31.33 23.34 31.36 23.35 31.38 23.36C31.36 23.54 31.35 23.52 31.33 23.6C31.25 23.63 31.31 23.67 31.38 23.7C31.33 23.6 31.29 23.54 31.35 23.56C31.3 23.5 31.36 23.62 31.4 23.66ZM30.11 23.95C30.1 23.76 30.14 23.74 30.17 23.73C30.1 23.69 30.05 23.81 29.93 23.85C30 23.91 30.1 23.85 30.11 23.95ZM27.14 22.32C27.16 22.44 27.18 22.39 27.2 22.29C27.2 22.39 27.05 22.27 27.04 22.43C27 22.45 27.11 22.48 27.08 22.53C27.2 22.48 27.09 22.4 27.14 22.32ZM35.8 26.11C35.75 26 35.85 26.04 35.8 26.08C35.84 25.98 35.89 25.88 35.86 25.94C35.67 25.94 35.77 25.99 35.8 26.11ZM26.85 30.36C26.94 30.4 26.93 30.51 26.93 30.4C26.98 30.54 26.91 30.56 26.95 30.44C26.92 30.43 27.02 30.43 26.97 30.41C26.98 30.42 27 30.27 27 30.38C26.98 30.25 26.95 30.35 26.85 30.36ZM29 18.89C29.06 18.92 29.06 18.9 28.91 19.03C29.03 18.91 29.01 18.99 28.99 18.9C29.12 18.9 29.09 18.91 29.05 18.8C29.12 18.81 29.09 18.97 29.2 18.93C29.13 18.81 29.2 18.83 29.17 18.83C29.17 18.77 29.14 18.89 29 18.89ZM27.07 24.69C27.11 24.65 26.97 24.65 26.97 24.58C26.95 24.63 26.95 24.78 26.92 24.77C26.92 24.84 26.92 24.74 26.92 24.8C26.94 24.73 27.04 24.65 27.07 24.69ZM30.67 20.71C30.54 20.79 30.54 20.72 30.54 20.9C30.51 20.86 30.66 20.73 30.67 20.71ZM24.91 26.5C24.92 26.45 24.92 26.45 24.88 26.4C24.7 26.43 24.82 26.46 24.79 26.34C24.78 26.42 24.91 26.43 24.91 26.5ZM25.77 25.35C25.78 25.39 25.86 25.34 25.83 25.29C25.86 25.24 25.74 25.34 25.77 25.32C25.72 25.29 25.67 25.44 25.69 25.51C25.69 25.43 25.82 25.52 25.75 25.47C25.75 25.46 25.83 25.38 25.89 25.34C25.77 25.34 25.88 25.3 25.77 25.35ZM24.8 27.13C24.89 27.12 24.87 27.12 24.91 27.26C24.91 27.2 24.91 27.27 24.91 27.35C24.85 27.35 24.92 27.35 25.01 27.35C24.93 27.28 25 27.37 24.92 27.31C24.98 27.25 24.89 27.19 24.8 27.13ZM27.55 29.23C27.56 29.23 27.52 29.23 27.67 29.05C27.58 29.1 27.46 29.16 27.38 29.24C27.42 29.28 27.44 29.19 27.55 29.23ZM31.79 27.14C31.76 27.25 31.83 27.11 31.88 26.99C31.82 27.12 31.87 26.97 31.87 27.04C31.9 26.98 31.78 26.92 31.81 27.01C31.89 27.14 31.85 27.09 31.72 26.98C31.68 27.13 31.78 27.03 31.79 27.14ZM24.69 25.67C24.72 25.7 24.64 25.74 24.69 25.62C24.72 25.7 24.7 25.72 24.61 25.68C24.69 25.66 24.71 25.79 24.69 25.7C24.53 25.76 24.52 25.72 24.62 25.84C24.58 25.83 24.69 25.76 24.69 25.67ZM33.94 30.49C33.94 30.43 33.94 30.3 33.94 30.32C33.93 30.35 33.92 30.26 33.91 30.24C34.03 30.4 33.91 30.37 33.94 30.49ZM21.97 30.05C22.1 30.02 22.07 29.99 22.05 29.96C22.01 30.01 21.94 30.07 22.03 30.28C21.96 30.3 22.04 30.16 21.96 30.2C22.08 30.14 21.97 30.09 21.97 30.05ZM36.43 25.83C36.44 25.89 36.45 25.78 36.45 25.83C36.47 25.8 36.35 25.92 36.37 25.89C36.34 25.98 36.45 25.92 36.37 26.01C36.46 25.9 36.43 25.8 36.43 25.83ZM25.21 24.77C25.22 24.88 25.27 24.84 25.28 24.9C25.34 24.9 25.18 24.83 25.22 24.77C25.29 24.77 25.25 24.77 25.21 24.77ZM27.03 29.5C27.05 29.33 27.05 29.22 27.12 29.23C27.19 29.21 26.95 29.3 27.03 29.5ZM24.86 23.64C24.72 23.61 24.83 23.61 24.69 23.63C24.78 23.75 24.84 23.75 24.76 23.91C24.88 23.9 24.88 23.74 24.81 23.73C24.87 23.68 24.79 23.63 24.86 23.64ZM32.37 28.17C32.38 28.14 32.36 28.06 32.22 28.11C32.28 28.12 32.3 28.23 32.18 28.18C32.25 28.29 32.33 28.24 32.26 28.19C32.36 28.24 32.29 28.14 32.37 28.17ZM23.86 25.29C23.9 25.32 23.77 25.36 23.71 25.27C23.66 25.37 23.71 25.44 23.64 25.59C23.69 25.53 23.73 25.47 23.76 25.57C23.82 25.49 23.74 25.4 23.86 25.29ZM24.42 26.08C24.38 26.13 24.46 26.11 24.45 26.2C24.42 26.25 24.54 26.29 24.56 26.3C24.58 26.23 24.5 26.12 24.42 26.08ZM34.08 31.42C34.11 31.56 34.14 31.55 34.03 31.53C34.08 31.29 34.15 31.21 34.21 31.13C34.08 31.1 34.11 31.08 34.14 31.21C34.02 31.33 34.05 31.36 34.08 31.42ZM29.26 19.42C29.31 19.61 29.21 19.66 29.26 19.69C29.37 19.65 29.33 19.62 29.32 19.51C29.25 19.57 29.24 19.46 29.26 19.42ZM34.93 25.41C34.97 25.47 34.93 25.44 34.99 25.38C34.9 25.31 34.96 25.26 34.93 25.26C34.86 25.26 34.77 25.42 34.93 25.41ZM33.36 31.18C33.29 31.12 33.38 31.07 33.31 31.17C33.35 31.17 33.38 31.03 33.48 31.03C33.41 31.02 33.34 30.95 33.37 30.93C33.37 30.96 33.4 31.11 33.36 31.18ZM26.21 26.27C26.27 26.23 26.2 26.05 26.05 26.07C26.16 26.06 26.1 26.24 26.21 26.27ZM24.18 30.18C24.19 30.25 24.2 30.28 24.21 30.24C24.17 30.13 24.18 30.06 24.23 30.03C24.29 30.02 24.23 30.11 24.23 30.05C24.21 30.04 24.16 30.06 24.11 30.05C24.17 30.1 24.11 30.23 24.18 30.18ZM35.09 29.25C35.2 29.13 35.15 29.18 35.23 29.13C35.13 29.11 35.04 29.14 35 29.2C35.15 29.27 35.11 29.23 35.09 29.25ZM26.9 25.66C26.94 25.66 26.93 25.73 26.93 25.7C26.98 25.82 26.95 25.75 26.97 25.73C27.02 25.81 26.99 25.79 27.05 25.78C26.93 25.67 26.99 25.73 26.9 25.66ZM24.55 21.22C24.4 21.32 24.37 21.46 24.33 21.55C24.49 21.46 24.49 21.48 24.5 21.49C24.43 21.51 24.51 21.37 24.59 21.31C24.46 21.3 24.52 21.3 24.55 21.22ZM33.43 22.24C33.43 22.15 33.41 22.2 33.38 22.1C33.32 22.06 33.3 22.26 33.43 22.24ZM35.42 31.03C35.4 31.15 35.35 31.18 35.33 31.14C35.45 31.21 35.4 31.17 35.5 31.27C35.41 31.32 35.49 31.21 35.39 31.26C35.39 31.16 35.4 31.07 35.42 31.03ZM34.76 28.04C34.75 28.11 34.78 28.26 34.76 28.24C34.76 28.21 34.83 28.11 34.89 28.11C34.74 28.09 34.81 28.05 34.76 28.04ZM28.27 27.9C28.33 28.04 28.38 28.06 28.43 28.01C28.47 28.06 28.36 28.05 28.41 28.04C28.35 28.01 28.45 27.9 28.45 27.95C28.32 27.87 28.28 27.95 28.27 27.9ZM22.65 30.61C22.64 30.66 22.61 30.55 22.59 30.6C22.52 30.66 22.57 30.72 22.48 30.76C22.54 30.85 22.45 30.79 22.51 30.73C22.51 30.74 22.51 30.75 22.65 30.61ZM29.72 24.6C29.75 24.61 29.86 24.49 29.92 24.56C29.91 24.45 29.88 24.43 29.77 24.53C29.82 24.43 29.7 24.59 29.72 24.6ZM34.14 28.37C34.18 28.33 34.22 28.39 34.26 28.39C34.18 28.25 34.09 28.26 34.1 28.23C34.1 28.3 34.12 28.39 34.06 28.36C34.19 28.3 34.16 28.34 34.14 28.37ZM24.57 31.16C24.72 31.11 24.6 31.02 24.6 30.93C24.66 31.03 24.57 31.08 24.57 31.16ZM27.34 31.12C27.25 31.21 27.32 31.15 27.37 31.09C27.35 31.08 27.17 31.08 27.21 31.1C27.17 31.16 27.17 31.16 27.34 31.12ZM24.15 32.49C24.14 32.6 24.23 32.63 24 32.69C24.17 32.74 24.23 32.64 24.31 32.67C24.25 32.71 24.19 32.84 24.22 32.85C24.2 32.8 24.2 32.76 24.05 32.69C24.14 32.73 24.1 32.71 24.14 32.76C24.03 32.8 24.04 32.73 24.02 32.8C24.04 32.8 24.02 32.86 24.03 32.75C24.03 32.84 23.92 32.65 24.03 32.68C23.96 32.56 24.02 32.56 23.96 32.56C23.96 32.56 24.11 32.47 24.15 32.49ZM32.99 31.98C33.07 32.04 33.11 31.93 33.22 31.93C33.17 31.93 33.34 31.93 33.21 31.92C33.36 31.94 33.31 32.01 33.26 32.08C33.1 32.09 33 32.13 32.99 31.98ZM32.52 20.44C32.63 20.28 32.57 20.22 32.51 20.16C32.46 20.18 32.42 20.05 32.54 20.16C32.51 20.1 32.55 20.11 32.46 19.99C32.51 20.14 32.53 20.12 32.6 20.16C32.55 20.11 32.61 20.18 32.52 20.23C32.62 20.21 32.59 20.12 32.65 20.22C32.59 20.39 32.56 20.43 32.56 20.44C32.53 20.44 32.56 20.44 32.52 20.44ZM32.99 31.55C32.97 31.62 32.99 31.64 32.95 31.65C32.97 31.72 33.08 31.63 33.05 31.7C33.01 31.72 33.08 31.76 33 31.85C32.97 31.88 33.08 32.01 32.88 31.97C32.91 31.95 33.05 31.89 33 31.78C33 31.83 33.08 31.77 32.92 31.7C32.97 31.74 32.91 31.73 32.99 31.55ZM32.28 31.42C32.23 31.3 32.3 31.33 32.31 31.24C32.28 31.24 32.26 31.23 32.3 31.15C32.35 31.16 32.33 31.12 32.3 31.27C32.32 31.35 32.38 31.29 32.41 31.39C32.35 31.34 32.45 31.43 32.41 31.41C32.29 31.49 32.25 31.47 32.31 31.42C32.25 31.44 32.34 31.47 32.28 31.42ZM32.98 21.13C33.03 21.04 32.94 20.96 32.93 20.84C32.97 20.9 33 20.95 32.92 20.93C33.03 21.01 33.18 20.96 33.17 20.93C33.14 21.06 33.12 21.1 33.13 21.11C33.08 21.05 33.08 21.12 33.02 21.02C33.01 21.01 32.98 21.13 32.98 21.13ZM36.12 24.91C36.24 24.89 36.15 24.94 36.06 24.83C36.09 24.92 36.02 24.91 36.06 24.77C36.08 24.78 36.11 24.7 36.02 24.75C36.03 24.65 36.01 24.73 36.02 24.65C36.02 24.62 36.06 24.62 36.06 24.63C36.16 24.7 36.05 24.63 36.18 24.68C36.16 24.72 36.13 24.7 36.12 24.91ZM33.46 21.6C33.38 21.54 33.44 21.55 33.34 21.61C33.51 21.55 33.42 21.54 33.55 21.43C33.48 21.54 33.63 21.44 33.58 21.43C33.6 21.41 33.68 21.41 33.68 21.52C33.66 21.58 33.66 21.52 33.66 21.61C33.61 21.58 33.64 21.59 33.58 21.62C33.58 21.58 33.47 21.61 33.5 21.48C33.51 21.6 33.55 21.54 33.47 21.68C33.47 21.57 33.46 21.6 33.46 21.6ZM32.03 31.37C31.84 31.47 31.94 31.38 31.96 31.31C32 31.24 31.94 31.2 31.98 31.24C31.96 31.07 31.91 31.15 31.96 31.17C32 31.14 32.08 31.12 32.01 31.09C32 31.04 32.12 31.14 32.1 31.24C32.13 31.2 32.03 31.16 32.07 31.12C32.08 31.29 32.08 31.3 31.92 31.33C31.91 31.34 32.03 31.37 32.03 31.37ZM33.8 31.38C34.01 31.4 33.92 31.49 33.87 31.66C33.9 31.57 33.92 31.47 33.8 31.38ZM30.03 18.73C29.97 18.62 29.95 18.69 29.87 18.61C29.9 18.63 29.94 18.64 29.96 18.56C29.98 18.51 29.91 18.47 29.95 18.49C30.04 18.41 29.99 18.49 30.08 18.41C29.98 18.57 30.04 18.58 30.03 18.73ZM24.52 32.07C24.49 32.1 24.52 32.12 24.39 31.99C24.44 32.12 24.5 32.05 24.43 32.19C24.35 32.1 24.39 31.96 24.4 31.96C24.4 31.94 24.43 31.91 24.49 32.05C24.47 31.97 24.47 32.07 24.45 32.06C24.47 32.12 24.49 32.02 24.52 32.07ZM26.09 30.89C26.14 30.81 26.13 30.89 26.04 30.78C26.19 30.85 26.19 30.83 26.19 30.82C26.14 30.94 26.1 31.05 26 30.95C26 30.91 26.09 30.89 26.09 30.89ZM21.73 30.17C21.65 30.14 21.71 30.26 21.61 30.3C21.7 30.29 21.66 30.25 21.59 30.18C21.59 30.21 21.57 30.12 21.62 30.18C21.61 30.19 21.74 30.1 21.75 30.08C21.74 30.07 21.73 30.17 21.73 30.17ZM22.41 31.2C22.31 31.28 22.36 31.18 22.5 31.13C22.54 31.19 22.52 31.27 22.52 31.31C22.48 31.2 22.58 31.24 22.54 31.28C22.57 31.3 22.44 31.33 22.41 31.2ZM28.71 18.49C28.75 18.46 28.64 18.43 28.71 18.34C28.75 18.35 28.79 18.35 28.85 18.35C28.75 18.46 28.8 18.4 28.7 18.51C28.75 18.45 28.7 18.48 28.71 18.49ZM26.72 25.14C26.69 25.15 26.75 25.16 26.67 25.17C26.71 25.24 26.75 25.16 26.65 25.23C26.7 25.14 26.6 25.2 26.52 25.38C26.51 25.33 26.57 25.32 26.51 25.23C26.54 25.3 26.68 25.17 26.72 25.14ZM28.89 24.58C28.94 24.53 28.93 24.56 28.83 24.54C28.87 24.51 28.85 24.53 28.92 24.41C28.89 24.48 28.89 24.42 29.02 24.48C28.98 24.52 29.01 24.53 28.89 24.58Z" fill="#FFFFFF" fill-opacity="1.000000" fill-rule="nonzero"/>
	<path id="Vector" d="M46.93 35.94C44.11 35.51 40.16 35.1 35.38 35.1C28.91 35.09 20.91 35.85 12.12 38.34C12.81 41.61 14.32 44.55 16.41 46.91L39.72 49.32C43.74 46.25 46.48 41.44 46.93 35.94Z" fill="#ED2A54" fill-opacity="1.000000" fill-rule="evenodd"/>
	<path id="Vector" d="M27.01 38.77C18.94 39.57 33.32 40.49 33.32 40.49C33.32 40.49 38.31 38.35 37.42 35.12C37.16 35.11 36.89 35.11 36.61 35.1C36.14 36.68 33.67 38.11 27.01 38.77Z" fill="#FFFFFF" fill-opacity="1.000000" fill-rule="evenodd"/>
	<path id="Vector" d="M45.95 40.64C37.5 38.73 29.67 38.08 22.94 38.08C18.93 38.08 15.32 38.31 12.19 38.64C13.49 44.38 17.34 49.08 22.41 51.36L40.42 48.75C42.91 46.65 44.84 43.85 45.95 40.64Z" fill="#ED2A54" fill-opacity="1.000000" fill-rule="evenodd"/>
	<path id="Vector" d="M45.38 42.09C37.62 42.31 27.56 43.49 16.51 47.03C19.73 50.61 24.29 52.85 29.35 52.85C36.46 52.85 42.59 48.44 45.38 42.09Z" fill="#ED2A54" fill-opacity="1.000000" fill-rule="evenodd"/>
	<path id="Vector" d="M30.03 43.68C31.58 44.78 34.12 47.12 36.02 51.48C38.64 50.36 40.94 48.6 42.75 46.39C40.87 44.69 38.6 43.3 35.97 42.79C34.06 43.02 32.08 43.31 30.03 43.68Z" fill="#FFFFFF" fill-opacity="1.000000" fill-rule="evenodd"/>
	<path id="Vector" d="M22.96 38.08L22.93 38.08L22.89 38.08C22.16 38.08 21.45 38.09 20.74 38.11C18.07 39.85 15.9 42.59 20.35 45.88C22.61 45.25 24.83 44.72 26.97 44.27C24.52 42.95 20.95 40.43 24.06 38.09C23.69 38.09 23.33 38.08 22.96 38.08Z" fill="#FFFFFF" fill-opacity="1.000000" fill-rule="evenodd"/>
	<path id="Vector" d="M57.33 40.89C58.69 40.11 59.12 38.17 59.12 38.17C59.12 38.17 57.02 37.95 55.75 38.98C55.36 39.3 54.99 39.87 54.71 40.4C54.92 39.32 55.07 38.21 55.14 37.08C55.63 36.99 56.74 36.69 57.85 35.77C59.04 34.77 59.13 32.83 59.13 32.83C59.13 32.83 57.07 32.98 56.01 34.21C55.67 34.6 55.41 35.24 55.22 35.82C55.27 34.62 55.24 33.44 55.13 32.28C55.59 32.1 56.61 31.62 57.52 30.53C58.5 29.36 58.28 27.47 58.28 27.47C58.28 27.47 56.31 27.99 55.5 29.36C55.23 29.81 55.07 30.48 54.98 31.08C54.81 29.88 54.56 28.7 54.24 27.55C54.64 27.32 55.59 26.67 56.32 25.41C57.08 24.11 56.56 22.32 56.56 22.32C56.56 22.32 54.74 23.17 54.17 24.64C53.96 25.18 53.94 25.98 53.97 26.62C53.58 25.39 53.11 24.21 52.58 23.08C52.91 22.81 53.75 22.01 54.27 20.62C54.79 19.22 54 17.59 54 17.59C54 17.59 52.39 18.74 52.08 20.25C51.95 20.86 52.09 21.73 52.23 22.36C51.63 21.15 50.95 20.02 50.23 18.97C50.5 18.65 51.18 17.72 51.46 16.3C51.73 14.86 50.7 13.42 50.7 13.42C50.7 13.42 49.33 14.82 49.28 16.34C49.26 16.93 49.51 17.72 49.75 18.3C48.96 17.22 48.12 16.25 47.25 15.41C47.46 15.05 47.97 14.04 48 12.61C48.04 11.17 46.81 9.97 46.81 9.97C46.81 9.97 45.71 11.56 45.91 13.03C45.99 13.64 46.4 14.4 46.73 14.92C46.42 14.64 46.11 14.37 45.8 14.13C45.09 13.53 44.4 13.01 43.73 12.54C43.85 12.23 44.24 11.11 44.03 9.64C43.83 8.24 42.44 7.3 42.44 7.3C42.44 7.3 41.64 9.03 42.07 10.42C42.27 11.08 42.92 11.84 43.34 12.27C42.08 11.44 40.9 10.81 39.87 10.35C39.93 10.06 40.15 8.88 39.69 7.46C39.27 6.15 37.78 5.49 37.78 5.49C37.78 5.49 37.29 7.31 37.93 8.57C38.25 9.21 39.09 9.87 39.55 10.2C38.84 9.89 38.21 9.66 37.68 9.49C37.53 9.28 36.75 8.31 35.81 8.14C35.05 8.01 33.77 8.52 33.77 8.52C33.77 8.52 34.39 9.39 35.62 9.84C36.44 10.13 37.36 9.72 37.63 9.58C38.27 9.81 39.07 10.13 39.97 10.57C39.44 10.48 38.36 10.33 37.68 10.56C36.39 11 35.54 12.67 35.54 12.67C35.54 12.67 37.05 13.27 38.22 12.64C39.47 11.96 40.09 10.98 40.25 10.71C41.26 11.22 42.4 11.88 43.6 12.74C43.04 12.55 42.13 12.28 41.49 12.37C40.11 12.58 38.98 14.09 38.98 14.09C38.98 14.09 40.39 14.98 41.67 14.56C42.97 14.13 43.75 13.33 44 13.04C44.54 13.43 45.08 13.87 45.63 14.35C46.12 14.75 46.6 15.19 47.08 15.67C46.56 15.36 45.66 14.91 44.99 14.89C43.57 14.84 42.18 16.15 42.18 16.15C42.18 16.15 43.45 17.3 44.81 17.12C46.2 16.93 47.13 16.25 47.41 16.02C48.28 16.92 49.1 17.95 49.87 19.09C49.39 18.69 48.66 18.16 48.04 18.03C46.63 17.72 45 18.77 45 18.77C45 18.77 46.08 20.17 47.48 20.24C48.85 20.3 49.87 19.84 50.24 19.64C50.91 20.68 51.53 21.8 52.08 22.98C51.67 22.51 51.08 21.95 50.55 21.72C49.18 21.15 47.37 21.91 47.37 21.91C47.37 21.91 48.22 23.51 49.61 23.84C50.92 24.14 51.99 23.9 52.43 23.77C52.93 24.92 53.36 26.12 53.71 27.37C53.37 26.82 52.89 26.15 52.39 25.83C51.11 25 49.16 25.42 49.16 25.42C49.16 25.42 49.75 27.19 51.09 27.78C52.36 28.33 53.47 28.29 53.94 28.23C54.25 29.48 54.47 30.77 54.59 32.08C54.34 31.46 53.96 30.66 53.5 30.22C52.36 29.15 50.33 29.22 50.33 29.22C50.33 29.22 50.61 31.1 51.87 31.94C53.05 32.74 54.18 32.9 54.66 32.93C54.74 34.14 54.73 35.38 54.62 36.62C54.47 35.97 54.22 35.19 53.87 34.71C52.9 33.41 50.85 33.1 50.85 33.1C50.85 33.1 50.81 35.05 51.93 36.13C52.96 37.12 54.04 37.5 54.53 37.63C54.42 38.82 54.22 39.99 53.94 41.12C53.9 40.45 53.79 39.63 53.51 39.08C52.75 37.6 50.75 36.91 50.75 36.91C50.75 36.91 50.38 38.87 51.33 40.15C52.18 41.33 53.18 41.91 53.67 42.14C53.35 43.23 52.97 44.29 52.53 45.32C52.59 44.66 52.61 43.88 52.43 43.32C51.92 41.69 50.02 40.62 50.02 40.62C50.02 40.62 49.33 42.52 50.06 43.99C50.7 45.3 51.59 46.06 52.04 46.39C51.57 47.39 51.03 48.34 50.46 49.25C50.62 48.62 50.75 47.88 50.67 47.31C50.44 45.58 48.71 44.16 48.71 44.16C48.71 44.16 47.69 45.93 48.17 47.55C48.6 48.96 49.34 49.89 49.75 50.32C49.09 51.26 48.39 52.14 47.66 52.95C47.94 52.33 48.23 51.57 48.25 50.95C48.3 49.17 46.8 47.42 46.8 47.42C46.8 47.42 45.48 49.01 45.69 50.72C45.88 52.26 46.5 53.34 46.83 53.83C46.01 54.66 45.16 55.4 44.31 56.04C44.71 55.46 45.13 54.73 45.25 54.11C45.61 52.33 44.4 50.29 44.4 50.29C44.4 50.29 42.8 51.64 42.73 53.4C42.66 54.97 43.09 56.17 43.34 56.73C43.01 56.94 42.68 57.14 42.35 57.33C41.76 57.7 41.18 58.02 40.61 58.31C41.08 57.82 41.57 57.22 41.78 56.65C42.44 54.93 41.57 52.65 41.57 52.65C41.57 52.65 39.74 53.72 39.36 55.47C39.04 57 39.25 58.26 39.41 58.89C38.37 59.35 37.39 59.7 36.52 59.97C37.07 59.56 37.65 59.06 37.96 58.54C38.91 56.92 38.42 54.48 38.42 54.48C38.42 54.48 36.4 55.21 35.73 56.9C35.15 58.37 35.14 59.66 35.19 60.33C33.26 60.79 32.1 60.87 32.1 60.87L32.15 61.32L32.19 61.77C32.19 61.77 33.67 61.67 36.06 61.01C36.38 61.56 37.12 62.63 38.43 63.48C39.93 64.43 41.97 63.77 41.97 63.77C41.97 63.77 41 61.49 39.32 60.78C38.86 60.58 38.23 60.51 37.64 60.51C38.48 60.21 39.39 59.84 40.35 59.36C40.74 59.84 41.63 60.75 43.04 61.34C44.64 61.99 46.51 60.99 46.51 60.99C46.51 60.99 45.19 58.96 43.46 58.57C42.97 58.46 42.35 58.52 41.76 58.62C42.09 58.43 42.42 58.24 42.75 58.03C43.28 57.73 43.81 57.38 44.33 57C44.8 57.4 45.79 58.1 47.23 58.4C48.88 58.75 50.52 57.45 50.52 57.45C50.52 57.45 48.92 55.73 47.19 55.66C46.72 55.64 46.15 55.79 45.62 55.98C46.36 55.35 47.09 54.65 47.8 53.89C48.3 54.19 49.39 54.71 50.85 54.74C52.5 54.79 53.87 53.24 53.87 53.24C53.87 53.24 52.05 51.86 50.36 52.11C49.86 52.18 49.28 52.47 48.77 52.78C49.43 51.97 50.06 51.12 50.66 50.21C51.16 50.4 52.33 50.74 53.8 50.51C55.4 50.26 56.47 48.52 56.47 48.52C56.47 48.52 54.49 47.51 52.91 48.05C52.39 48.23 51.82 48.66 51.35 49.09C51.91 48.14 52.43 47.15 52.89 46.11C53.41 46.21 54.59 46.33 55.97 45.84C57.47 45.31 58.22 43.44 58.22 43.44C58.22 43.44 56.15 42.83 54.7 43.63C54.24 43.88 53.77 44.4 53.4 44.88C53.79 43.86 54.14 42.79 54.41 41.7C54.93 41.7 56.08 41.6 57.33 40.89ZM23.93 60.33C23.99 59.66 23.98 58.37 23.4 56.9C22.73 55.21 20.71 54.48 20.71 54.48C20.71 54.48 20.22 56.92 21.17 58.54C21.48 59.06 22.06 59.56 22.61 59.97C21.73 59.7 20.76 59.35 19.72 58.89C19.88 58.26 20.09 57 19.76 55.47C19.39 53.72 17.55 52.65 17.55 52.65C17.55 52.65 16.69 54.93 17.34 56.65C17.56 57.22 18.05 57.82 18.52 58.31C17.95 58.02 17.37 57.7 16.77 57.33C16.44 57.14 16.11 56.94 15.78 56.73C16.04 56.17 16.47 54.97 16.4 53.4C16.32 51.64 14.72 50.29 14.72 50.29C14.72 50.29 13.52 52.33 13.87 54.11C14 54.73 14.42 55.46 14.82 56.04C13.96 55.4 13.12 54.66 12.3 53.83C12.63 53.34 13.24 52.26 13.43 50.72C13.65 49.01 12.33 47.42 12.33 47.42C12.33 47.42 10.83 49.17 10.88 50.95C10.9 51.57 11.18 52.33 11.47 52.95C10.74 52.14 10.04 51.26 9.38 50.32C9.79 49.89 10.53 48.96 10.95 47.55C11.44 45.93 10.42 44.16 10.42 44.16C10.42 44.16 8.69 45.58 8.45 47.31C8.38 47.88 8.5 48.62 8.67 49.25C8.09 48.34 7.56 47.39 7.08 46.39C7.54 46.06 8.42 45.3 9.07 43.99C9.8 42.52 9.1 40.62 9.1 40.62C9.1 40.62 7.2 41.69 6.7 43.32C6.52 43.88 6.53 44.66 6.6 45.32C6.16 44.29 5.77 43.23 5.46 42.14C5.94 41.91 6.94 41.33 7.8 40.15C8.74 38.87 8.38 36.91 8.38 36.91C8.38 36.91 6.37 37.6 5.62 39.08C5.34 39.63 5.23 40.45 5.19 41.12C4.91 39.99 4.71 38.82 4.59 37.63C5.09 37.5 6.16 37.12 7.19 36.13C8.31 35.05 8.28 33.1 8.28 33.1C8.28 33.1 6.23 33.41 5.26 34.71C4.9 35.19 4.66 35.97 4.51 36.62C4.4 35.38 4.39 34.14 4.47 32.93C4.94 32.9 6.07 32.74 7.26 31.94C8.51 31.1 8.8 29.22 8.8 29.22C8.8 29.22 6.77 29.15 5.63 30.22C5.17 30.66 4.78 31.46 4.53 32.08C4.66 30.77 4.88 29.48 5.19 28.23C5.66 28.29 6.77 28.33 8.04 27.78C9.38 27.19 9.96 25.42 9.96 25.42C9.96 25.42 8.02 25 6.74 25.83C6.24 26.15 5.75 26.82 5.41 27.37C5.76 26.12 6.19 24.92 6.69 23.77C7.14 23.9 8.2 24.14 9.51 23.84C10.91 23.51 11.75 21.91 11.75 21.91C11.75 21.91 9.95 21.15 8.58 21.72C8.04 21.95 7.46 22.51 7.04 22.98C7.59 21.8 8.22 20.68 8.89 19.64C9.26 19.84 10.27 20.3 11.65 20.24C13.04 20.17 14.12 18.77 14.12 18.77C14.12 18.77 12.5 17.72 11.08 18.03C10.47 18.16 9.74 18.69 9.25 19.09C10.02 17.95 10.85 16.92 11.71 16.02C12 16.25 12.93 16.93 14.32 17.12C15.68 17.3 16.95 16.15 16.95 16.15C16.95 16.15 15.56 14.84 14.14 14.89C13.47 14.91 12.57 15.36 12.05 15.67C12.53 15.19 13.01 14.75 13.5 14.35C14.05 13.87 14.59 13.43 15.12 13.04C15.37 13.33 16.16 14.13 17.46 14.56C18.74 14.98 20.15 14.09 20.15 14.09C20.15 14.09 19.02 12.58 17.64 12.37C17 12.28 16.08 12.55 15.53 12.74C16.73 11.88 17.87 11.22 18.88 10.71C19.04 10.98 19.66 11.96 20.91 12.64C22.08 13.27 23.59 12.67 23.59 12.67C23.59 12.67 22.74 11 21.44 10.56C20.77 10.33 19.69 10.48 19.16 10.57C20.06 10.13 20.85 9.81 21.5 9.58C21.77 9.72 22.68 10.13 23.51 9.84C24.74 9.39 25.35 8.52 25.35 8.52C25.35 8.52 24.08 8.01 23.32 8.14C22.37 8.31 21.6 9.28 21.44 9.49C20.91 9.66 20.29 9.89 19.58 10.2C20.04 9.87 20.87 9.21 21.19 8.57C21.83 7.31 21.34 5.49 21.34 5.49C21.34 5.49 19.86 6.15 19.44 7.46C18.98 8.88 19.19 10.06 19.25 10.35C18.23 10.81 17.05 11.44 15.79 12.27C16.2 11.84 16.85 11.08 17.06 10.42C17.48 9.03 16.68 7.3 16.68 7.3C16.68 7.3 15.3 8.24 15.1 9.64C14.89 11.11 15.27 12.23 15.4 12.54C14.72 13.01 14.03 13.53 13.33 14.13C13.02 14.37 12.71 14.64 12.4 14.92C12.73 14.4 13.14 13.64 13.22 13.03C13.41 11.56 12.32 9.97 12.32 9.97C12.32 9.97 11.09 11.17 11.12 12.61C11.16 14.04 11.66 15.05 11.87 15.41C11.01 16.25 10.17 17.22 9.38 18.3C9.61 17.72 9.87 16.93 9.85 16.34C9.8 14.82 8.42 13.42 8.42 13.42C8.42 13.42 7.39 14.86 7.67 16.3C7.94 17.72 8.62 18.65 8.89 18.97C8.17 20.02 7.5 21.15 6.9 22.36C7.04 21.72 7.17 20.86 7.05 20.25C6.74 18.74 5.13 17.59 5.13 17.59C5.13 17.59 4.33 19.22 4.85 20.62C5.37 22.01 6.22 22.81 6.54 23.08C6.02 24.21 5.55 25.39 5.16 26.62C5.19 25.98 5.16 25.18 4.95 24.64C4.39 23.17 2.57 22.32 2.57 22.32C2.57 22.32 2.05 24.11 2.81 25.41C3.54 26.67 4.49 27.32 4.89 27.55C4.57 28.7 4.32 29.88 4.15 31.08C4.06 30.48 3.9 29.81 3.63 29.36C2.81 27.99 0.85 27.47 0.85 27.47C0.85 27.47 0.62 29.36 1.61 30.53C2.52 31.62 3.53 32.1 4 32.28C3.89 33.44 3.86 34.62 3.91 35.82C3.72 35.24 3.45 34.6 3.11 34.21C2.06 32.98 0 32.83 0 32.83C0 32.83 0.09 34.77 1.28 35.77C2.38 36.69 3.5 36.99 3.99 37.08C4.06 38.21 4.21 39.32 4.42 40.4C4.14 39.87 3.77 39.3 3.37 38.98C2.11 37.95 0.01 38.17 0.01 38.17C0.01 38.17 0.43 40.11 1.79 40.89C3.04 41.6 4.19 41.7 4.72 41.7C4.99 42.79 5.33 43.86 5.73 44.88C5.35 44.4 4.88 43.88 4.42 43.63C2.98 42.83 0.91 43.44 0.91 43.44C0.91 43.44 1.66 45.31 3.16 45.84C4.54 46.33 5.72 46.21 6.24 46.11C6.7 47.15 7.21 48.14 7.77 49.09C7.3 48.66 6.74 48.23 6.22 48.05C4.63 47.51 2.66 48.52 2.66 48.52C2.66 48.52 3.73 50.26 5.32 50.51C6.8 50.74 7.96 50.4 8.47 50.21C9.06 51.12 9.69 51.97 10.36 52.78C9.85 52.47 9.26 52.18 8.76 52.11C7.08 51.86 5.26 53.24 5.26 53.24C5.26 53.24 6.63 54.79 8.28 54.74C9.74 54.71 10.83 54.19 11.33 53.89C12.04 54.65 12.76 55.35 13.51 55.98C12.98 55.79 12.41 55.64 11.94 55.66C10.2 55.73 8.61 57.45 8.61 57.45C8.61 57.45 10.25 58.75 11.9 58.4C13.33 58.1 14.33 57.4 14.8 57C15.32 57.38 15.85 57.73 16.37 58.03C16.71 58.24 17.04 58.43 17.36 58.62C16.78 58.52 16.15 58.46 15.66 58.57C13.93 58.96 12.62 60.99 12.62 60.99C12.62 60.99 14.49 61.99 16.08 61.34C17.5 60.75 18.38 59.84 18.78 59.36C19.74 59.84 20.65 60.21 21.49 60.51C20.9 60.51 20.27 60.58 19.81 60.78C18.13 61.49 17.15 63.77 17.15 63.77C17.15 63.77 19.2 64.43 20.69 63.48C22.01 62.63 22.75 61.56 23.06 61.01C25.46 61.67 26.94 61.77 26.94 61.77L26.98 61.32L27.02 60.87C27.02 60.87 25.87 60.79 23.93 60.33Z" fill="#1B68B2" fill-opacity="1.000000" fill-rule="nonzero"/>
	<path id="Vector" d="M35.26 6.67C35.21 6.69 35.16 6.74 35.12 6.8C35.09 6.84 35.07 6.88 35.06 6.92C35.04 6.97 35.02 7.02 35.01 7.07C34.96 7.27 35 7.47 35.06 7.54C35.16 7.52 35.28 7.37 35.33 7.15C35.35 7.1 35.35 7.04 35.35 6.99C35.35 6.94 35.35 6.89 35.34 6.85C35.33 6.77 35.3 6.7 35.26 6.67Z" fill="#ED2A54" fill-opacity="1.000000" fill-rule="evenodd"/>
	<path id="Vector" d="M34.5 8.82C34.5 8.82 34.51 8.8 34.53 8.77C34.54 8.73 34.57 8.68 34.6 8.62C34.63 8.57 34.66 8.5 34.69 8.42C34.73 8.35 34.77 8.27 34.8 8.18C34.86 8.02 34.93 7.86 34.97 7.73C35.01 7.6 35.03 7.52 35.03 7.52L35.09 7.54C35.09 7.54 35.06 7.62 35.02 7.75C34.98 7.88 34.91 8.04 34.85 8.21C34.82 8.29 34.78 8.37 34.75 8.45C34.71 8.52 34.68 8.59 34.65 8.65C34.62 8.71 34.59 8.76 34.57 8.79C34.56 8.83 34.55 8.85 34.55 8.85L34.5 8.82Z" fill="#ED2A54" fill-opacity="1.000000" fill-rule="evenodd"/>
	<path id="Vector" d="M34.45 7.38C34.55 7.39 34.7 7.5 34.8 7.7C34.82 7.75 34.84 7.8 34.85 7.84C34.87 7.89 34.87 7.94 34.87 7.98C34.87 8.06 34.86 8.13 34.83 8.17C34.73 8.16 34.59 8.02 34.5 7.83C34.48 7.78 34.46 7.73 34.45 7.69C34.44 7.64 34.43 7.6 34.43 7.56C34.42 7.48 34.43 7.42 34.45 7.38Z" fill="#ED2A54" fill-opacity="1.000000" fill-rule="evenodd"/>
	<path id="Vector" d="M35.63 7.78C35.55 7.72 35.36 7.73 35.17 7.83C35.12 7.86 35.08 7.89 35.04 7.92C35 7.94 34.96 7.97 34.93 8C34.88 8.06 34.84 8.13 34.83 8.18C34.91 8.24 35.1 8.26 35.3 8.16C35.35 8.14 35.4 8.11 35.44 8.08C35.48 8.04 35.51 8.01 35.54 7.97C35.59 7.9 35.63 7.83 35.63 7.78Z" fill="#ED2A54" fill-opacity="1.000000" fill-rule="evenodd"/>
	<path id="Vector" d="M35.38 8.49C35.3 8.43 35.11 8.42 34.91 8.5C34.8 8.54 34.72 8.59 34.66 8.64C34.63 8.67 34.6 8.7 34.58 8.73C34.56 8.75 34.55 8.78 34.54 8.8L34.54 8.8C34.61 8.87 34.8 8.91 35.01 8.84C35.11 8.8 35.2 8.74 35.26 8.68C35.33 8.61 35.37 8.55 35.38 8.49Z" fill="#ED2A54" fill-opacity="1.000000" fill-rule="evenodd"/>
	<path id="Vector" d="M34.24 7.97C34.34 7.99 34.48 8.12 34.55 8.32C34.59 8.42 34.6 8.52 34.6 8.61C34.6 8.65 34.59 8.69 34.58 8.72C34.57 8.75 34.55 8.78 34.53 8.8L34.53 8.8C34.44 8.77 34.32 8.62 34.25 8.42C34.21 8.32 34.19 8.22 34.2 8.15C34.2 8.07 34.22 8.01 34.24 7.97Z" fill="#ED2A54" fill-opacity="1.000000" fill-rule="evenodd"/>
	<path id="Vector" d="M33.74 9.95C33.74 9.95 33.79 9.89 33.88 9.78C33.92 9.73 33.96 9.67 34.01 9.6C34.06 9.54 34.11 9.47 34.16 9.39C34.2 9.32 34.25 9.25 34.29 9.18C34.33 9.11 34.38 9.04 34.41 8.98C34.47 8.87 34.51 8.79 34.51 8.79L34.56 8.82C34.56 8.82 34.52 8.9 34.45 9.01C34.42 9.07 34.38 9.14 34.34 9.21C34.29 9.28 34.25 9.35 34.2 9.43C34.15 9.5 34.1 9.57 34.05 9.64C34 9.7 33.96 9.77 33.92 9.82C33.83 9.92 33.78 9.99 33.78 9.99L33.74 9.95Z" fill="#ED2A54" fill-opacity="1.000000" fill-rule="evenodd"/>
	<path id="Vector" d="M33.97 8.53C34.06 8.56 34.19 8.7 34.25 8.92C34.3 9.13 34.26 9.32 34.18 9.39C34.09 9.35 33.98 9.19 33.93 8.98C33.91 8.88 33.9 8.78 33.91 8.7C33.92 8.62 33.94 8.56 33.97 8.53Z" fill="#ED2A54" fill-opacity="1.000000" fill-rule="evenodd"/>
	<path id="Vector" d="M35.05 9.17C34.98 9.1 34.79 9.07 34.58 9.13C34.38 9.18 34.23 9.3 34.19 9.4C34.26 9.47 34.44 9.53 34.65 9.47C34.76 9.45 34.85 9.4 34.92 9.34C34.99 9.29 35.03 9.22 35.05 9.17Z" fill="#ED2A54" fill-opacity="1.000000" fill-rule="evenodd"/>
	<path id="Vector" d="M29.03 14.21C29.04 14.18 29.12 14.14 29.17 14.11C29.21 14.07 29.21 14.04 29.16 14.02C29.16 14.01 29.16 14.01 29.15 14.01C29.09 14.07 29.04 14.13 28.98 14.2C29 14.21 29.01 14.21 29.03 14.21ZM29.48 14.3L29.48 14.29C29.47 14.24 29.45 14.21 29.44 14.18C29.36 14.14 29.28 14.1 29.23 14.17C29.22 14.18 29.21 14.2 29.21 14.22C29.25 14.21 29.36 14.21 29.48 14.3ZM23.99 4.02C23.52 3.66 23.31 3.34 23.19 3.08C23.06 2.82 23.07 2.63 23.12 2.57C23.3 2.36 23.68 3.2 25.21 4.15C25.01 4.02 24.82 3.88 24.62 3.73C24.61 3.72 24.6 3.72 24.6 3.72C24.29 3.49 24.05 3.28 23.85 3.08C23.85 3.08 23.85 3.08 23.85 3.08C23.41 2.63 23.22 2.26 23.13 1.97C23.11 1.91 23.1 1.86 23.09 1.81L23.09 1.81C23.08 1.74 23.07 1.68 23.07 1.63C23.07 1.53 23.09 1.46 23.13 1.43C23.26 1.31 23.43 1.62 23.88 2.16C23.75 1.92 23.67 1.71 23.63 1.53C23.55 1.22 23.58 1.02 23.64 0.96C23.82 0.77 24.01 1.49 24.9 2.51C24.79 2.36 24.7 2.22 24.62 2.08C24.61 2.08 24.61 2.07 24.61 2.07C24.3 1.54 24.18 1.08 24.14 0.71C24.13 0.64 24.12 0.58 24.12 0.52C24.12 0.52 24.12 0.51 24.12 0.51C24.1 0.26 24.13 0.09 24.17 0.03C24.3 -0.15 24.41 0.31 24.77 1.06C25.73 2.83 26.84 3.65 28 4.66C28.01 4.67 28.02 4.68 28.03 4.68C28.16 4.71 29.26 5.54 29.48 6.23C29.69 6.91 29.36 8.06 29.69 8.8C30.03 9.54 30.83 9.39 30.83 9.39C30.89 9.36 30.95 9.33 31 9.3C31.7 8.95 31.81 8.32 32.46 8.24C33.39 8.14 33.77 8.88 33.85 9.26C33.86 9.25 33.99 9.38 34.11 9.46C34.12 9.47 34.14 9.49 34.15 9.49C34.17 9.51 34.19 9.52 34.21 9.53C34.34 9.6 34.33 9.74 34.32 9.81C34.27 9.74 34.16 9.68 34.05 9.64C34.04 9.63 34.03 9.63 34.01 9.62C34.01 9.62 34.01 9.62 34.01 9.62C34 9.62 34 9.62 34 9.62L34 9.62C33.99 9.61 33.97 9.61 33.96 9.6C33.89 9.58 33.82 9.56 33.75 9.53C33.74 9.54 33.74 9.54 33.73 9.55C33.84 9.58 33.93 9.61 33.98 9.63C33.98 9.63 33.98 9.63 33.99 9.63C34 9.64 34.02 9.65 34.04 9.66L34.04 9.66C34.14 9.69 34.24 9.74 34.28 9.81C34.2 9.77 34.1 9.74 33.99 9.72C33.97 9.72 33.95 9.71 33.93 9.71L33.93 9.71C33.84 9.7 33.74 9.69 33.66 9.7C33.66 9.7 33.66 9.7 33.66 9.7C33.63 9.75 33.61 9.75 33.59 9.75C33.34 9.79 32.76 9.93 32.57 11.02C32.44 11.72 32.17 12.45 31.32 12.95C30.75 13.29 30.04 13.21 29.29 13.88C29.33 13.88 29.36 13.88 29.39 13.88C29.43 13.87 29.55 13.85 29.69 13.97C29.82 14.09 29.83 14.17 29.79 14.28C29.75 14.37 29.7 14.45 29.63 14.5C29.64 14.54 29.63 14.59 29.61 14.64C29.56 14.76 29.49 14.87 29.39 14.9C29.39 14.9 29.39 14.9 29.39 14.9C29.33 14.98 29.26 15.04 29.19 15.06C29.18 15.06 29.18 15.06 29.17 15.06C29.13 15.1 29.04 15.12 28.96 15.08C29.02 15.09 29.08 15.07 29.11 15.03C29.09 15.01 29.09 14.98 29.11 14.93C29.12 14.92 29.12 14.92 29.13 14.91C29.09 14.91 29.05 14.89 29.03 14.85C29.05 14.87 29.08 14.86 29.11 14.86C29.09 14.8 29.12 14.72 29.22 14.74C29.25 14.75 29.27 14.74 29.29 14.73C29.29 14.72 29.29 14.72 29.29 14.72C29.25 14.72 29.21 14.72 29.16 14.7C29.21 14.71 29.25 14.7 29.29 14.67C29.29 14.67 29.29 14.66 29.29 14.66C29.28 14.6 29.26 14.57 29.25 14.54C29.17 14.49 29.08 14.46 29.03 14.53C28.98 14.59 28.95 14.76 28.84 14.72C28.83 14.72 28.83 14.71 28.82 14.71C28.81 14.75 28.81 14.8 28.85 14.83C28.76 14.81 28.77 14.69 28.79 14.64C28.79 14.61 28.8 14.59 28.82 14.57C28.83 14.54 28.91 14.5 28.96 14.46C29 14.43 29.01 14.39 28.96 14.37C28.93 14.35 28.89 14.34 28.86 14.34C28.6 14.58 27.97 14.59 27.09 14.65C27.05 14.65 27 14.65 26.96 14.66C26.95 14.67 26.94 14.69 26.93 14.7C26.92 14.71 26.91 14.73 26.91 14.74C26.89 14.77 26.87 14.79 26.86 14.81C26.86 14.81 26.86 14.81 26.86 14.82C26.65 15.38 26.3 16.3 26.11 16.47C26 16.58 25.8 16.59 25.79 16.54C25.79 16.54 25.79 16.54 25.79 16.54C25.79 16.54 25.79 16.53 25.79 16.53C25.58 16.91 25.38 17.21 25.25 17.31C25.05 17.47 24.72 17.41 24.77 17.31C24.66 17.44 24.57 17.55 24.5 17.6C24.3 17.76 24.04 17.77 24.05 17.68C24.05 17.67 24.05 17.66 24.06 17.64C24.11 17.58 24.2 17.46 24.32 17.3C24.34 17.25 24.38 17.21 24.41 17.17C24.32 17.28 24.24 17.38 24.18 17.46C23.79 17.94 23.29 17.7 23.5 17.43C23.54 17.37 23.62 17.28 23.72 17.16C23.42 17.44 23.14 17.2 23.18 17.07L23.18 17.07C23.19 17.06 23.19 17.06 23.2 17.05C23.25 16.98 23.34 16.89 23.46 16.77C23.4 16.74 23.4 16.48 23.52 16.25C23.55 16.21 23.59 16.15 23.64 16.09C23.64 16.09 23.63 16.1 23.63 16.1C23.68 16.04 23.77 15.94 23.88 15.83C23.89 15.82 23.91 15.81 23.92 15.8C23.88 15.83 23.84 15.86 23.81 15.88C23.63 16.03 23.53 15.61 23.83 15.31C23.85 15.29 23.9 15.25 23.95 15.21C24.2 14.95 25.15 14.31 25.81 13.88C26.25 13.51 26.61 12.79 26.82 12.43C26.88 12.33 26.96 12.22 27.05 12.11C26.82 12.1 26.67 12 26.62 11.93C26.54 11.79 26.7 11.74 27.02 11.58C26.74 11.68 26.51 11.67 26.32 11.63C26.28 11.62 26.23 11.61 26.19 11.59C26.03 11.54 25.93 11.45 25.9 11.38C25.84 11.25 25.96 11.21 26.21 11.14C26.05 11.14 25.91 11.11 25.79 11.07C25.75 11.05 25.71 11.03 25.67 11.02L25.66 11.01C25.51 10.94 25.42 10.84 25.4 10.77C25.34 10.58 25.59 10.6 26.07 10.49C25.82 10.5 25.64 10.44 25.49 10.36C25.45 10.34 25.41 10.32 25.38 10.3C25.38 10.3 25.37 10.3 25.37 10.3C25.24 10.2 25.16 10.09 25.15 10.02C25.13 9.84 25.32 9.86 25.71 9.83C25.51 9.79 25.35 9.72 25.21 9.63C25.16 9.61 25.11 9.58 25.07 9.55L25.07 9.55C24.91 9.43 24.81 9.3 24.79 9.21C24.74 9.01 24.98 9.07 25.44 9.09C25.27 9.04 25.13 8.96 25.01 8.88C24.97 8.85 24.93 8.82 24.89 8.79L24.89 8.79C24.74 8.67 24.66 8.54 24.65 8.46C24.62 8.25 24.86 8.34 25.34 8.39C25.13 8.33 24.98 8.22 24.85 8.12C24.81 8.09 24.77 8.05 24.74 8.02L24.74 8.02C24.61 7.89 24.55 7.76 24.55 7.69C24.55 7.61 24.59 7.58 24.67 7.58C24.51 7.5 24.39 7.4 24.3 7.3C24.27 7.27 24.24 7.24 24.21 7.21C24.21 7.21 24.21 7.21 24.21 7.21C24.1 7.08 24.06 6.95 24.06 6.88C24.06 6.87 24.06 6.86 24.06 6.86C24.06 6.85 24.06 6.84 24.07 6.83C24.03 6.81 24 6.79 23.97 6.76C23.94 6.74 23.91 6.72 23.89 6.69L23.89 6.69C23.78 6.59 23.75 6.49 23.76 6.44C23.81 6.32 24.01 6.4 24.45 6.51C24.14 6.41 23.95 6.29 23.83 6.18C23.66 6.04 23.63 5.91 23.66 5.86C23.73 5.73 23.98 5.88 24.59 6.05C24.13 5.9 23.89 5.73 23.75 5.58C23.72 5.55 23.69 5.52 23.67 5.49C23.61 5.41 23.59 5.35 23.59 5.3C23.59 5.28 23.59 5.26 23.6 5.25C23.66 5.16 23.8 5.2 24.07 5.31C23.77 5.15 23.61 5 23.5 4.87C23.36 4.71 23.35 4.58 23.39 4.53C23.5 4.42 23.74 4.62 24.36 4.92C24.3 4.88 24.24 4.85 24.18 4.82C24.18 4.82 24.18 4.82 24.18 4.82C23.7 4.54 23.47 4.28 23.34 4.06C23.2 3.84 23.19 3.68 23.24 3.63C23.34 3.5 23.54 3.72 24.05 4.07C24.03 4.05 24.01 4.04 23.99 4.02C23.99 4.02 23.99 4.02 23.99 4.02Z" fill="#ED2A54" fill-opacity="1.000000" fill-rule="evenodd"/>
	<path id="Vector" d="M33.21 9.04C33.21 9.09 33.25 9.13 33.29 9.13C33.34 9.13 33.38 9.09 33.38 9.04C33.38 8.99 33.34 8.95 33.29 8.95C33.25 8.95 33.21 8.99 33.21 9.04Z" fill="#ED2A54" fill-opacity="1.000000" fill-rule="evenodd"/>
	<path id="Vector" d="M33.26 10.48C33.31 10.44 33.36 10.38 33.41 10.32C33.47 10.26 33.53 10.2 33.59 10.13C33.65 10.07 33.7 10 33.75 9.94C33.81 9.87 33.86 9.82 33.89 9.76C33.94 9.7 33.98 9.65 34 9.62C34.01 9.63 34.03 9.64 34.05 9.64C34.03 9.67 33.99 9.73 33.94 9.8C33.9 9.85 33.85 9.91 33.8 9.97C33.74 10.04 33.69 10.1 33.63 10.17C33.57 10.24 33.51 10.3 33.45 10.36C33.4 10.42 33.35 10.48 33.3 10.52C33.2 10.61 33.14 10.67 33.14 10.67L33.1 10.63C33.1 10.63 33.16 10.57 33.26 10.48Z" fill="#ED2A54" fill-opacity="1.000000" fill-rule="evenodd"/>
	<path id="Vector" d="M28.03 4.63C28.03 4.65 28.03 4.67 28.03 4.68C28.16 4.71 29.26 5.54 29.48 6.23C29.69 6.91 29.36 8.06 29.69 8.8C30.03 9.54 30.83 9.39 30.83 9.39C30.81 9.06 30.77 8.35 30.87 7.55C30.97 6.43 31.34 5.14 31.64 4.23C31.87 3.22 33.25 1.84 33.12 1.5C33.08 1.4 32.99 1.36 32.89 1.37C32.63 1.38 32.26 1.68 31.97 2.02C31.86 2.15 31.76 2.28 31.69 2.39C32.14 1.51 32.41 0.93 32.08 0.78C32.06 0.77 32.03 0.77 32.01 0.76C31.82 0.74 31.57 0.96 31.34 1.31C31.24 1.46 31.14 1.64 31.05 1.85C31.28 1.28 31.33 0.8 30.99 0.74C30.96 0.74 30.88 0.74 30.88 0.75L30.88 0.75C30.88 0.75 30.9 0.75 30.9 0.75C30.8 0.77 30.72 0.85 30.63 0.95C30.52 1.07 30.44 1.21 30.37 1.38C30.32 1.48 30.29 1.56 30.27 1.62C30.23 1.25 30.01 1.24 29.78 1.42C29.78 1.42 29.78 1.42 29.77 1.43C29.61 1.56 29.45 1.79 29.33 2.06C29.33 2.08 29.33 2.09 29.32 2.09C29.32 2.11 29.31 2.12 29.31 2.14C29.3 2.17 29.29 2.2 29.28 2.22C29.27 2.25 29.26 2.27 29.26 2.29C29.26 2.29 29.26 2.3 29.26 2.3C29.24 2.37 29.19 2.44 29.18 2.51C29.08 2.38 28.87 2.51 28.73 2.78L28.73 2.78C28.73 2.89 28.48 3.3 28.49 3.69C28.49 3.7 28.5 3.7 28.5 3.71C28.39 3.6 28.3 3.76 28.15 4.01L28.15 4.01C28.15 4.11 28.01 4.37 28.03 4.63Z" fill="#ED2A54" fill-opacity="1.000000" fill-rule="evenodd"/>
	<path id="Vector" d="M205.87 27.99L205.87 32.04L201.99 32.04L201.99 27.99L205.87 27.99ZM208.5 18L215.7 18C216.27 18 216.81 18.06 217.34 18.19C217.86 18.32 218.37 18.54 218.86 18.83C219.35 19.13 219.74 19.56 220.04 20.12C220.33 20.69 220.48 21.36 220.48 22.14C220.48 22.9 220.3 23.59 219.94 24.21C219.59 24.83 219.1 25.28 218.5 25.57C219.1 25.73 219.56 26.15 219.88 26.83C220.19 27.51 220.38 28.25 220.46 29.04L220.59 30.52C220.65 31.27 220.77 31.77 220.93 32.04L216.87 32.04C216.76 31.79 216.67 31.35 216.62 30.72L216.57 29.93C216.53 29.45 216.48 29.07 216.43 28.78C216.37 28.49 216.27 28.21 216.11 27.92C215.96 27.63 215.74 27.42 215.44 27.28C215.14 27.15 214.76 27.09 214.29 27.09L212.56 27.09L212.56 32.04L208.5 32.04L208.5 18ZM212.56 21.25L212.56 24.13L214.82 24.13C215.93 24.13 216.49 23.64 216.49 22.67C216.49 21.72 215.86 21.25 214.59 21.25L212.56 21.25ZM234.58 18L234.58 26.3C234.58 28.44 234.07 29.98 233.05 30.9C232.03 31.83 230.51 32.29 228.49 32.29C224.44 32.29 222.42 30.37 222.42 26.54L222.42 18L226.52 18L226.52 26.59C226.52 27.33 226.68 27.88 227 28.23C227.33 28.59 227.85 28.76 228.56 28.76C229.84 28.76 230.48 28.04 230.48 26.59L230.48 18L234.58 18Z" fill="#1B68B2" fill-opacity="1.000000" fill-rule="nonzero"/>
	<path id="Vector" d="M68.54 37.77L199.59 37.77C199.81 37.77 199.99 37.96 199.99 38.2L199.99 38.2C199.99 38.43 199.81 38.62 199.59 38.62L68.54 38.62C68.32 38.62 68.14 38.43 68.14 38.2L68.14 38.2C68.14 37.96 68.32 37.77 68.54 37.77Z" fill="#1B68B2" fill-opacity="1.000000" fill-rule="evenodd"/>
	<path id="Vector" d="M68.14 51.14L71.39 51.14C72.91 51.14 73.45 50.45 73.45 48.97C73.45 47.68 72.9 47.3 72.37 47.12C72.81 46.94 73.19 46.51 73.19 45.65C73.19 44.19 72.37 43.82 71.3 43.82L68.14 43.82L68.14 51.14ZM70 48.02L70.9 48.02C71.29 48.02 71.65 48.34 71.65 48.9C71.65 49.47 71.37 49.8 70.9 49.8L70 49.8L70 48.02ZM70.81 45.16C71.2 45.16 71.39 45.46 71.39 45.87C71.39 46.4 71.11 46.68 70.81 46.68L70 46.68L70 45.16L70.81 45.16ZM78.9 49.29C78.69 49.37 77.73 49.57 77.3 49.57C76.43 49.57 76.11 48.93 76.11 48.19L76.11 46.78C76.11 45.97 76.5 45.39 77.3 45.39C77.73 45.39 78.62 45.58 78.83 45.67L79.16 44.06C78.95 43.98 77.99 43.71 77.3 43.71C75.56 43.71 74.17 44.58 74.17 46.75L74.17 48.21C74.17 50.39 75.55 51.24 77.3 51.24C77.99 51.24 78.95 50.97 79.16 50.9L78.9 49.29ZM82.07 48.18L84.35 48.18L84.35 46.66L82.07 46.66L82.07 45.37L84.89 45.37L84.89 43.82L80.13 43.82L80.13 51.14L84.89 51.14L84.89 49.59L82.07 49.59L82.07 48.18ZM88.64 43.82L88.64 51.14L90.57 51.14L90.57 49.17L91.26 49.17C93.38 49.17 94.23 48.44 94.23 46.47C94.23 44.51 93.38 43.82 91.26 43.82L88.64 43.82ZM90.57 45.39L91.26 45.39C91.93 45.39 92.28 45.6 92.28 46.46C92.28 47.43 91.85 47.61 91.26 47.61L90.57 47.61L90.57 45.39ZM95.21 43.82L95.21 51.14L96.77 51.14L99.57 46.83L99.57 51.14L101.5 51.14L101.5 43.82L99.95 43.82L97.15 48.13L97.15 43.82L95.21 43.82ZM102.28 45.62L104.06 45.62L104.06 51.14L105.99 51.14L105.99 45.62L107.77 45.62L107.77 43.82L102.28 43.82L102.28 45.62ZM110.92 49.16C110.75 49.64 110.3 49.75 109.81 49.75C109.37 49.75 109 49.65 108.6 49.52L108.27 50.97C108.8 51.13 109.64 51.24 110.28 51.24C111.14 51.24 112.26 50.87 112.8 49.49L114.59 43.82L112.59 43.82L111.54 47.98L111.49 47.98L110.27 43.82L108.02 43.82L109.56 48.18C109.9 48.94 110.63 49.15 110.92 49.16ZM119.08 51.14L121.11 51.14L118.96 43.82L116.53 43.82L114.32 51.14L116.35 51.14L116.73 49.7L118.71 49.7L119.08 51.14ZM117.77 45.7L118.45 48.36L117 48.36L117.77 45.7ZM123.09 43.82C123.04 46.46 123.19 49.56 121.67 49.56C121.61 49.56 121.59 49.55 121.58 49.55L121.81 51.16C122.02 51.21 122.26 51.24 122.49 51.24C124.33 51.24 124.75 49.16 124.84 45.6L126.45 45.6L126.45 51.14L128.39 51.14L128.39 43.82L123.09 43.82ZM132.25 51.14C134.39 51.14 135.22 50.45 135.22 48.76C135.22 47.22 134.53 46.37 132.77 46.37C132.24 46.37 131.56 46.46 131.56 46.46L131.56 43.82L129.62 43.82L129.62 51.14L132.25 51.14ZM132.25 47.74C132.89 47.74 133.26 47.95 133.26 48.77C133.26 49.6 132.91 49.8 132.25 49.8L131.56 49.8L131.56 47.78C131.8 47.75 132.02 47.74 132.25 47.74ZM140.57 43.82L140.57 46.52L138.13 46.52L138.13 43.82L136.19 43.82L136.19 51.14L138.13 51.14L138.13 48.07L140.57 48.07L140.57 51.14L142.5 51.14L142.5 43.82L140.57 43.82ZM150.08 51.14L152.02 51.14L152.02 43.82L150.08 43.82L150.08 51.14ZM146.36 51.14L143.74 51.14L143.74 43.82L145.68 43.82L145.68 46.46C146.09 46.4 146.49 46.37 146.89 46.37C148.65 46.37 149.34 47.22 149.34 48.76C149.34 50.45 148.51 51.14 146.36 51.14ZM146.36 47.74C146.14 47.74 145.92 47.75 145.68 47.78L145.68 49.8L146.36 49.8C147.03 49.8 147.38 49.6 147.38 48.77C147.38 47.95 147.01 47.74 146.36 47.74ZM155.19 48.18L157.47 48.18L157.47 46.66L155.19 46.66L155.19 45.37L158.01 45.37L158.01 43.82L153.25 43.82L153.25 51.14L158.01 51.14L158.01 49.59L155.19 49.59L155.19 48.18ZM164.13 49.16C163.96 49.64 163.52 49.75 163.03 49.75C162.59 49.75 162.22 49.65 161.82 49.52L161.49 50.97C162.02 51.13 162.86 51.24 163.5 51.24C164.35 51.24 165.48 50.87 166.02 49.49L167.8 43.82L165.81 43.82L164.76 47.98L164.71 47.98L163.49 43.82L161.24 43.82L162.78 48.18C163.12 48.94 163.85 49.15 164.13 49.16ZM172.69 49.29C172.48 49.37 171.52 49.57 171.09 49.57C170.23 49.57 169.91 48.93 169.91 48.19L169.91 46.78C169.91 45.97 170.3 45.39 171.09 45.39C171.52 45.39 172.41 45.58 172.62 45.67L172.95 44.06C172.74 43.98 171.78 43.71 171.09 43.71C169.35 43.71 167.96 44.58 167.96 46.75L167.96 48.21C167.96 50.39 169.34 51.24 171.09 51.24C171.78 51.24 172.74 50.97 172.95 50.9L172.69 49.29ZM174.95 43.82C174.9 46.46 175.05 49.56 173.53 49.56C173.48 49.56 173.45 49.55 173.44 49.55L173.68 51.16C173.88 51.21 174.13 51.24 174.35 51.24C176.19 51.24 176.61 49.16 176.7 45.6L178.31 45.6L178.31 51.14L180.25 51.14L180.25 43.82L174.95 43.82ZM183.86 49.16C183.69 49.64 183.24 49.75 182.75 49.75C182.31 49.75 181.94 49.65 181.54 49.52L181.22 50.97C181.74 51.13 182.58 51.24 183.22 51.24C184.08 51.24 185.2 50.87 185.74 49.49L187.53 43.82L185.53 43.82L184.49 47.98L184.44 47.98L183.21 43.82L180.97 43.82L182.5 48.18C182.84 48.94 183.57 49.15 183.86 49.16ZM190.18 51.14L190.18 45.61L192.88 45.61L192.88 43.82L188.25 43.82L188.25 51.14L190.18 51.14ZM193.7 43.82L193.7 51.14L195.26 51.14L198.06 46.83L198.06 51.14L199.99 51.14L199.99 43.82L198.44 43.82L195.63 48.13L195.63 43.82L193.7 43.82Z" fill="#1B68B2" fill-opacity="1.000000" fill-rule="nonzero"/>
	<path id="DOMHORON" d="M88.56 31.47Q90.23 32.27 92.28 32.27Q94.32 32.27 95.98 31.48Q96.12 31.41 96.26 31.34Q97.35 30.76 98.15 29.91Q98.66 29.37 99.04 28.73Q99.32 28.28 99.52 27.8Q100.06 26.51 100.06 24.99Q100.06 23.48 99.52 22.18Q99.32 21.7 99.04 21.25Q98.65 20.61 98.14 20.07Q97.34 19.23 96.26 18.66Q96.11 18.57 95.95 18.5Q94.3 17.71 92.28 17.71Q90.24 17.71 88.58 18.5Q88.43 18.58 88.28 18.66Q87.22 19.22 86.43 20.05Q85.91 20.59 85.5 21.25Q85.23 21.7 85.03 22.18Q84.49 23.48 84.49 24.99Q84.49 26.51 85.03 27.8Q85.23 28.28 85.5 28.73Q85.9 29.38 86.41 29.92Q87.21 30.76 88.28 31.34Q88.42 31.41 88.56 31.47ZM140.68 31.47Q142.35 32.27 144.4 32.27Q146.44 32.27 148.1 31.48Q148.24 31.41 148.38 31.34Q149.47 30.76 150.27 29.91Q150.78 29.37 151.16 28.73Q151.44 28.28 151.64 27.8Q152.17 26.51 152.17 24.99Q152.17 23.48 151.64 22.18Q151.44 21.7 151.16 21.25Q150.77 20.61 150.26 20.07Q149.46 19.23 148.38 18.66Q148.23 18.57 148.07 18.5Q146.42 17.71 144.4 17.71Q142.36 17.71 140.71 18.5Q140.55 18.58 140.4 18.66Q139.34 19.22 138.55 20.05Q138.03 20.59 137.62 21.25Q137.35 21.7 137.15 22.18Q136.61 23.48 136.61 24.99Q136.61 26.51 137.15 27.8Q137.35 28.28 137.62 28.73Q138.02 29.38 138.53 29.92Q139.33 30.76 140.4 31.34Q140.54 31.41 140.68 31.47ZM172.4 31.47Q174.07 32.27 176.12 32.27Q178.16 32.27 179.82 31.48Q179.96 31.41 180.1 31.34Q181.19 30.76 181.99 29.91Q182.5 29.37 182.88 28.73Q183.16 28.28 183.36 27.8Q183.9 26.51 183.9 24.99Q183.9 23.48 183.36 22.18Q183.16 21.7 182.88 21.25Q182.49 20.61 181.98 20.07Q181.18 19.23 180.1 18.66Q179.95 18.57 179.79 18.5Q178.14 17.71 176.12 17.71Q174.08 17.71 172.43 18.5Q172.27 18.58 172.12 18.66Q171.06 19.22 170.27 20.05Q169.75 20.59 169.34 21.25Q169.07 21.7 168.87 22.18Q168.33 23.48 168.33 24.99Q168.33 26.51 168.87 27.8Q169.07 28.28 169.34 28.73Q169.74 29.38 170.25 29.92Q171.05 30.76 172.12 31.34Q172.26 31.41 172.4 31.47ZM75.31 18L68.7 18L68.7 32L75.31 32Q77.62 32 79.39 31.14Q80.65 30.53 81.5 29.57Q81.86 29.17 82.15 28.7Q82.24 28.57 82.31 28.43Q83.13 26.94 83.13 24.99Q83.13 23.06 82.32 21.57Q82.24 21.43 82.15 21.3Q81.86 20.82 81.48 20.4Q80.63 19.45 79.39 18.86Q77.62 18 75.31 18ZM114.73 24.57L114.77 32L118.42 32L118.38 18L115.12 18L110.32 26.08L105.39 18L102.14 18L102.14 32L105.79 32L105.79 24.77L109.37 30.61L111.14 30.61L114.73 24.57ZM134.54 32L134.54 18L130.58 18L130.58 23.25L125.18 23.25L125.18 18L121.22 18L121.22 32L125.18 32L125.18 26.54L130.58 26.54L130.58 32L134.54 32ZM158.22 28.27L160.38 28.27L162.91 32L167.16 32L164.13 27.6Q165.2 27.08 165.86 26.25Q166.02 26.05 166.16 25.83Q166.24 25.71 166.31 25.58Q166.87 24.53 166.87 23.18Q166.87 21.8 166.29 20.73Q166.21 20.58 166.11 20.43Q165.96 20.18 165.77 19.96Q165.06 19.12 163.95 18.63Q162.56 18 160.65 18L154.26 18L154.26 32L158.22 32L158.22 28.27ZM199.3 32L199.3 18L195.42 18L195.42 25.46L189.23 18L185.98 18L185.98 32L189.85 32L189.85 24.53L196.04 32L199.3 32ZM93.73 28.73Q93.06 29 92.28 29Q91.51 29 90.85 28.74Q90.59 28.64 90.35 28.5Q90.05 28.32 89.79 28.09Q89.32 27.68 88.99 27.09Q88.99 27.08 88.98 27.07Q88.49 26.16 88.49 24.99Q88.49 23.83 88.98 22.93Q88.98 22.92 88.99 22.91Q89.33 22.3 89.82 21.87Q90.07 21.66 90.35 21.5Q90.6 21.35 90.87 21.25Q91.52 20.99 92.28 20.99Q93.04 20.99 93.71 21.26Q93.96 21.36 94.2 21.5Q94.49 21.67 94.74 21.89Q95.23 22.31 95.55 22.91Q95.57 22.93 95.58 22.96Q96.06 23.85 96.06 24.99Q96.06 26.15 95.58 27.04Q95.57 27.07 95.55 27.09Q95.24 27.67 94.77 28.08Q94.51 28.32 94.2 28.5Q93.97 28.63 93.73 28.73ZM145.85 28.73Q145.18 29 144.4 29Q143.63 29 142.97 28.74Q142.71 28.64 142.47 28.5Q142.17 28.32 141.91 28.09Q141.44 27.68 141.11 27.09Q141.11 27.08 141.1 27.07Q140.61 26.16 140.61 24.99Q140.61 23.83 141.1 22.93Q141.1 22.92 141.11 22.91Q141.45 22.3 141.94 21.87Q142.19 21.66 142.47 21.5Q142.72 21.35 142.99 21.25Q143.64 20.99 144.4 20.99Q145.16 20.99 145.83 21.26Q146.08 21.36 146.32 21.5Q146.61 21.67 146.86 21.89Q147.35 22.31 147.67 22.91Q147.69 22.93 147.7 22.96Q148.18 23.85 148.18 24.99Q148.18 26.15 147.7 27.04Q147.69 27.07 147.67 27.09Q147.36 27.67 146.89 28.08Q146.63 28.32 146.32 28.5Q146.09 28.63 145.85 28.73ZM177.57 28.73Q176.9 29 176.12 29Q175.35 29 174.69 28.74Q174.43 28.64 174.19 28.5Q173.89 28.32 173.63 28.09Q173.16 27.68 172.83 27.09Q172.83 27.08 172.82 27.07Q172.33 26.16 172.33 24.99Q172.33 23.83 172.82 22.93Q172.82 22.92 172.83 22.91Q173.17 22.3 173.66 21.87Q173.91 21.66 174.19 21.5Q174.44 21.35 174.71 21.25Q175.36 20.99 176.12 20.99Q176.88 20.99 177.55 21.26Q177.8 21.36 178.04 21.5Q178.33 21.67 178.58 21.89Q179.07 22.31 179.39 22.91Q179.41 22.93 179.42 22.96Q179.9 23.85 179.9 24.99Q179.9 26.15 179.42 27.04Q179.41 27.07 179.39 27.09Q179.08 27.67 178.61 28.08Q178.35 28.32 178.04 28.5Q177.81 28.63 177.57 28.73ZM162.53 21.96Q162.88 22.44 162.88 23.18Q162.88 23.9 162.53 24.39Q162.41 24.55 162.25 24.69Q161.63 25.21 160.41 25.21L158.22 25.21L158.22 21.12L160.41 21.12Q161.63 21.12 162.25 21.66Q162.41 21.79 162.53 21.96ZM77.64 28.14Q76.64 28.84 75.16 28.84L72.66 28.84L72.66 21.16L75.16 21.16Q76.64 21.16 77.64 21.85Q77.85 22 78.04 22.18Q78.29 22.4 78.48 22.67Q79.14 23.6 79.14 24.99Q79.14 26.4 78.47 27.33Q78.28 27.59 78.04 27.82Q77.85 27.99 77.64 28.14Z" fill="#ED2A54" fill-opacity="1.000000" fill-rule="evenodd"/>
</svg>
